<svg width="127" height="125" viewBox="0 0 127 125" fill="none" xmlns="http://www.w3.org/2000/svg">
<ellipse cx="63.5" cy="62.5" rx="63.5" ry="62.5" fill="#F0B1E2" fill-opacity="0.12"/>
<ellipse cx="63.1112" cy="62.4147" rx="47.1112" ry="46.3561" fill="white"/>
<path d="M42 60.2874C57.7027 63.7212 58.8657 79.0474 58.8657 79.0474C58.8657 79.0474 60.0287 63.7212 75.7315 60.2874C60.0287 56.8536 58.8657 41.5273 58.8657 41.5273C58.8657 41.5273 57.7027 56.8536 42 60.2874Z" fill="black"/>
<path d="M42 60.2874C57.7027 63.7212 58.8657 79.0474 58.8657 79.0474C58.8657 79.0474 60.0287 63.7212 75.7315 60.2874C60.0287 56.8536 58.8657 41.5273 58.8657 41.5273C58.8657 41.5273 57.7027 56.8536 42 60.2874Z" fill="url(#paint0_linear_280_1043)"/>
<path d="M65.4609 74.7143C67.9343 75.1835 70.1916 76.4154 71.9056 78.2317C73.6196 80.048 74.7012 82.3541 74.9937 84.8159C75.2862 82.3541 76.3679 80.048 78.0819 78.2317C79.7959 76.4154 82.0532 75.1835 84.5265 74.7143C82.0532 74.2452 79.7959 73.0132 78.0819 71.197C76.3679 69.3807 75.2862 67.0746 74.9937 64.6128C74.7012 67.0746 73.6196 69.3807 71.9056 71.197C70.1916 73.0132 67.9343 74.2452 65.4609 74.7143Z" fill="black"/>
<path d="M65.4609 74.7143C67.9343 75.1835 70.1916 76.4154 71.9056 78.2317C73.6196 80.048 74.7012 82.3541 74.9937 84.8159C75.2862 82.3541 76.3679 80.048 78.0819 78.2317C79.7959 76.4154 82.0532 75.1835 84.5265 74.7143C82.0532 74.2452 79.7959 73.0132 78.0819 71.197C76.3679 69.3807 75.2862 67.0746 74.9937 64.6128C74.7012 67.0746 73.6196 69.3807 71.9056 71.197C70.1916 73.0132 67.9343 74.2452 65.4609 74.7143Z" fill="url(#paint1_linear_280_1043)"/>
<defs>
<linearGradient id="paint0_linear_280_1043" x1="58.8657" y1="41.5273" x2="58.8657" y2="79.0474" gradientUnits="userSpaceOnUse">
<stop stop-color="#4E073A"/>
<stop offset="1" stop-color="#B11385"/>
</linearGradient>
<linearGradient id="paint1_linear_280_1043" x1="74.9937" y1="64.6128" x2="74.9937" y2="84.8159" gradientUnits="userSpaceOnUse">
<stop stop-color="#4E073A"/>
<stop offset="1" stop-color="#B11385"/>
</linearGradient>
</defs>
</svg>
