<svg width="42" height="42" viewBox="0 0 42 42" fill="none" xmlns="http://www.w3.org/2000/svg">
<g clip-path="url(#clip0_299_812)">
<path d="M13 7.2L18 10L15.1999 5L18 0L13 2.8L8 0L10.8 5L8 10L13 7.2Z" fill="url(#paint0_linear_299_812)"/>
<path d="M37 26.8L32 24L34.8 29L32 34L37 31.2L42 34L39.2 29L42 24L37 26.8Z" fill="url(#paint1_linear_299_812)"/>
<path d="M42 0L37 2.8L32 0L34.8 5L32 10L37 7.2L42 10L39.2 5L42 0Z" fill="url(#paint2_linear_299_812)"/>
<path d="M26.8 10.6C26 9.8 24.8 9.8 24 10.6L0.599939 34C-0.200061 34.8 -0.200061 36 0.599939 36.8L5.19994 41.3999C5.99994 42.1999 7.19994 42.1999 7.99994 41.3999L31.4 18C32.2 17.2 32.2 16 31.4 15.2L26.8 10.6ZM24.6 21.6L20.4 17.4L25.2 12.6L29.4 16.8L24.6 21.6Z" fill="url(#paint3_linear_299_812)"/>
</g>
<defs>
<linearGradient id="paint0_linear_299_812" x1="13" y1="0" x2="13" y2="10" gradientUnits="userSpaceOnUse">
<stop stop-color="#4E073A"/>
<stop offset="1" stop-color="#B11385"/>
</linearGradient>
<linearGradient id="paint1_linear_299_812" x1="37" y1="24" x2="37" y2="34" gradientUnits="userSpaceOnUse">
<stop stop-color="#4E073A"/>
<stop offset="1" stop-color="#B11385"/>
</linearGradient>
<linearGradient id="paint2_linear_299_812" x1="37" y1="0" x2="37" y2="10" gradientUnits="userSpaceOnUse">
<stop stop-color="#4E073A"/>
<stop offset="1" stop-color="#B11385"/>
</linearGradient>
<linearGradient id="paint3_linear_299_812" x1="16" y1="10" x2="16" y2="41.9999" gradientUnits="userSpaceOnUse">
<stop stop-color="#4E073A"/>
<stop offset="1" stop-color="#B11385"/>
</linearGradient>
<clipPath id="clip0_299_812">
<rect width="42" height="42" fill="white"/>
</clipPath>
</defs>
</svg>
