<svg width="54" height="64" viewBox="0 0 54 64" fill="none" xmlns="http://www.w3.org/2000/svg">
<path fill-rule="evenodd" clip-rule="evenodd" d="M31.7089 21.3738V44.6381L27.9653 46.1895L26.3907 48.5669C26.1488 48.937 25.7368 49.1604 25.2947 49.1612H21.142C20.6998 49.1604 20.2878 48.937 20.0459 48.5669L18.4713 46.1895L12.8443 43.8585L10.0502 44.4297C9.61706 44.5189 9.16802 44.3857 8.85375 44.0746L5.92063 41.1415C5.60955 40.8272 5.47629 40.3782 5.56557 39.9451L6.13675 37.1509L3.8057 31.5239L1.42833 29.9493C1.0582 29.7074 0.834781 29.2954 0.833984 28.8532V24.7006C0.834781 24.2584 1.0582 23.8464 1.42833 23.6045L3.8057 22.0299L6.13675 16.4029L5.56557 13.6087C5.47629 13.1757 5.60955 12.7266 5.92063 12.4123L8.85375 9.47922C9.16802 9.16815 9.61706 9.03489 10.0502 9.12416L12.8443 9.69535L18.4713 7.36429L20.0459 4.98692C20.2878 4.61679 20.6998 4.39337 21.142 4.39258H25.2947C25.7368 4.39337 26.1488 4.61679 26.3907 4.98692L27.5871 6.7931L31.7089 21.3738Z" fill="#DEE9E5"/>
<path fill-rule="evenodd" clip-rule="evenodd" d="M31.706 22.1443V35.7447C27.6771 39.5583 21.5997 40.2174 16.8468 37.3563C12.094 34.4951 9.83218 28.8159 11.3167 23.4706C12.8013 18.1254 17.6678 14.4259 23.2154 14.4255C24.0475 14.4251 24.8775 14.5079 25.6931 14.6725C26.3004 18.0218 28.5642 20.8347 31.706 22.1443Z" fill="#AABDA7"/>
<g filter="url(#filter0_d_280_1153)">
<path d="M43.7956 1.18521C43.5016 0.974741 43.1096 0.940931 42.7814 1.09774C42.4531 1.25456 42.2444 1.57539 42.2413 1.92778V12.2494C42.2438 12.6023 42.0381 12.926 41.7103 13.0848L36.8833 15.4053C36.6094 15.5353 36.2882 15.5353 36.0144 15.4053L31.1873 13.0848C30.8596 12.926 30.6538 12.6023 30.6563 12.2494V1.92778C30.6533 1.57539 30.4445 1.25456 30.1163 1.09774C29.788 0.940931 29.396 0.974741 29.102 1.18521C28.1067 1.88087 27.2193 2.70907 26.4665 3.64496C24.7957 5.74799 23.8931 8.32216 23.8985 10.9685C23.8971 11.6908 23.965 12.4116 24.1012 13.1219C24.8608 17.1495 27.6921 20.5322 31.6218 22.107V49.9532C31.6218 52.5163 33.7829 54.5942 36.4488 54.5942C39.1147 54.5942 41.2759 52.5163 41.2759 49.9532V22.107C45.4709 20.4265 48.3933 16.6969 48.916 12.3564C49.4388 8.01599 47.4802 3.74296 43.7956 1.18521ZM37.4142 49.9532C37.4142 50.4658 36.982 50.8814 36.4488 50.8814C35.9156 50.8814 35.4834 50.4658 35.4834 49.9532V47.1686C35.4834 46.6559 35.9156 46.2403 36.4488 46.2403C36.982 46.2403 37.4142 46.6559 37.4142 47.1686V49.9532Z" fill="url(#paint0_linear_280_1153)"/>
<path d="M43.7956 1.18521C43.5016 0.974741 43.1096 0.940931 42.7814 1.09774C42.4531 1.25456 42.2444 1.57539 42.2413 1.92778V12.2494C42.2438 12.6023 42.0381 12.926 41.7103 13.0848L36.8833 15.4053C36.6094 15.5353 36.2882 15.5353 36.0144 15.4053L31.1873 13.0848C30.8596 12.926 30.6538 12.6023 30.6563 12.2494V1.92778C30.6533 1.57539 30.4445 1.25456 30.1163 1.09774C29.788 0.940931 29.396 0.974741 29.102 1.18521C28.1067 1.88087 27.2193 2.70907 26.4665 3.64496C24.7957 5.74799 23.8931 8.32216 23.8985 10.9685C23.8971 11.6908 23.965 12.4116 24.1012 13.1219C24.8608 17.1495 27.6921 20.5322 31.6218 22.107V49.9532C31.6218 52.5163 33.7829 54.5942 36.4488 54.5942C39.1147 54.5942 41.2759 52.5163 41.2759 49.9532V22.107C45.4709 20.4265 48.3933 16.6969 48.916 12.3564C49.4388 8.01599 47.4802 3.74296 43.7956 1.18521ZM37.4142 49.9532C37.4142 50.4658 36.982 50.8814 36.4488 50.8814C35.9156 50.8814 35.4834 50.4658 35.4834 49.9532V47.1686C35.4834 46.6559 35.9156 46.2403 36.4488 46.2403C36.982 46.2403 37.4142 46.6559 37.4142 47.1686V49.9532Z" fill="url(#paint1_linear_280_1153)"/>
</g>
<defs>
<filter id="filter0_d_280_1153" x="18.8984" y="0" width="35.1011" height="63.5942" filterUnits="userSpaceOnUse" color-interpolation-filters="sRGB">
<feFlood flood-opacity="0" result="BackgroundImageFix"/>
<feColorMatrix in="SourceAlpha" type="matrix" values="0 0 0 0 0 0 0 0 0 0 0 0 0 0 0 0 0 0 127 0" result="hardAlpha"/>
<feOffset dy="4"/>
<feGaussianBlur stdDeviation="2.5"/>
<feComposite in2="hardAlpha" operator="out"/>
<feColorMatrix type="matrix" values="0 0 0 0 0 0 0 0 0 0 0 0 0 0 0 0 0 0 0.09 0"/>
<feBlend mode="normal" in2="BackgroundImageFix" result="effect1_dropShadow_280_1153"/>
<feBlend mode="normal" in="SourceGraphic" in2="effect1_dropShadow_280_1153" result="shape"/>
</filter>
<linearGradient id="paint0_linear_280_1153" x1="27.5695" y1="46.7561" x2="56.698" y2="33.1136" gradientUnits="userSpaceOnUse">
<stop stop-color="#FD346E"/>
<stop offset="1" stop-color="#FF6491"/>
</linearGradient>
<linearGradient id="paint1_linear_280_1153" x1="44.5899" y1="-3.40965" x2="-7.83963" y2="31.928" gradientUnits="userSpaceOnUse">
<stop stop-color="#109D04"/>
<stop offset="1" stop-color="#F1DC1E"/>
</linearGradient>
</defs>
</svg>
