<svg width="42" height="42" viewBox="0 0 42 42" fill="none" xmlns="http://www.w3.org/2000/svg">
<path d="M41.8999 26.8957C41.7249 27.5024 41.3399 27.9924 40.7915 28.3074L37.0349 30.4074V34.7007C37.0349 35.9841 35.9849 37.0341 34.7015 37.0341H30.3965L28.3082 40.7907C27.9932 41.3391 27.5032 41.7241 26.8965 41.8991C26.3015 42.0624 25.6715 41.9924 25.1232 41.6891L20.9932 39.3791L16.8632 41.6891C16.5015 41.8874 16.1165 41.9807 15.7199 41.9807C15.5097 41.9807 15.2999 41.9574 15.0899 41.8991C14.4832 41.7241 13.9932 41.3391 13.6782 40.7907L11.5899 37.0341H7.28486C6.00153 37.0341 4.95153 35.9841 4.95153 34.7007V30.4074L1.19486 28.3074C0.646529 27.9924 0.261529 27.5024 0.0865288 26.8957C-0.0768045 26.3007 -0.00680416 25.6707 0.296529 25.1224L2.60653 20.9924L0.296529 16.8624C-0.333471 15.7307 0.0748626 14.3074 1.19486 13.6774L4.95153 11.5774V7.28408C4.95153 6.00074 6.00153 4.95075 7.28486 4.95075H11.5899L13.6782 1.19408C13.9932 0.645745 14.4832 0.260745 15.0899 0.085745C15.6849 -0.0775883 16.3149 -0.00758838 16.8632 0.295862L20.9932 2.60586L25.1232 0.295862C25.6715 -0.0074717 26.3014 -0.0774717 26.8965 0.085745C27.5032 0.260745 27.9932 0.645745 28.3082 1.19408L30.3965 4.95075H34.7015C35.9849 4.95075 37.0349 6.00074 37.0349 7.28408V11.5774L40.7915 13.6774C41.9115 14.3074 42.3199 15.7307 41.6899 16.8624L39.3799 20.9924L41.6899 25.1224C41.9932 25.6707 42.0631 26.3007 41.8999 26.8957Z" fill="url(#paint0_linear_280_1193)"/>
<path d="M18.6562 27.9922C18.3576 27.9922 18.0592 27.8783 17.8314 27.6504L11.998 21.8171C11.5423 21.3614 11.5423 20.6231 11.998 20.1673C12.4537 19.7115 13.192 19.7116 13.6478 20.1673L18.6563 25.1758L29.4981 14.334C29.9538 13.8783 30.6921 13.8783 31.1479 14.334C31.6037 14.7897 31.6036 15.5279 31.1479 15.9837L19.4813 27.6504C19.2534 27.8783 18.9546 27.9922 18.6562 27.9922Z" fill="white"/>
<defs>
<linearGradient id="paint0_linear_280_1193" x1="20.9932" y1="41.9854" x2="20.9932" y2="0.000580578" gradientUnits="userSpaceOnUse">
<stop stop-color="#61BF34"/>
<stop offset="0.9944" stop-color="#26B7FF"/>
</linearGradient>
</defs>
</svg>
