<svg width="127" height="125" viewBox="0 0 127 125" fill="none" xmlns="http://www.w3.org/2000/svg">
<ellipse cx="63.5" cy="62.5" rx="63.5" ry="62.5" fill="#61DA8A" fill-opacity="0.12"/>
<ellipse cx="64.0156" cy="62.278" rx="46.0156" ry="45.278" fill="white"/>
<path d="M64.513 39.8828C60.0603 39.8828 55.7077 41.182 52.0054 43.6161C48.3032 46.0502 45.4177 49.5099 43.7137 53.5577C42.0098 57.6055 41.5639 62.0595 42.4326 66.3566C43.3013 70.6537 45.4454 74.6008 48.5939 77.6989C51.7424 80.7969 55.7538 82.9067 60.1209 83.7614C64.488 84.6162 69.0146 84.1775 73.1283 82.5009C77.242 80.8242 80.7581 77.9849 83.2318 74.342C85.7056 70.6991 87.026 66.4162 87.026 62.0349C87.026 59.1259 86.4437 56.2453 85.3123 53.5577C84.1809 50.8701 82.5226 48.428 80.4321 46.371C78.3415 44.314 75.8597 42.6823 73.1283 41.569C70.3969 40.4558 67.4694 39.8828 64.513 39.8828ZM56.701 65.2913C56.8669 65.4434 56.9999 65.6268 57.0922 65.8306C57.1845 66.0344 57.2341 66.2544 57.2381 66.4775C57.2421 66.7006 57.2004 66.9222 57.1155 67.129C57.0306 67.3359 56.9042 67.5238 56.7438 67.6816C56.5835 67.8394 56.3925 67.9637 56.1823 68.0473C55.972 68.1309 55.7468 68.1719 55.5201 68.168C55.2934 68.164 55.0698 68.1152 54.8627 68.0244C54.6556 67.9336 54.4692 67.8027 54.3146 67.6394L49.812 63.209C49.6552 63.0549 49.5308 62.8719 49.4459 62.6704C49.361 62.469 49.3173 62.253 49.3173 62.0349C49.3173 61.8169 49.361 61.6009 49.4459 61.3995C49.5308 61.198 49.6552 61.015 49.812 60.8609L54.3146 56.4305C54.4692 56.2672 54.6556 56.1363 54.8627 56.0455C55.0698 55.9547 55.2934 55.9059 55.5201 55.9019C55.7468 55.898 55.972 55.939 56.1823 56.0226C56.3925 56.1061 56.5835 56.2305 56.7438 56.3883C56.9042 56.546 57.0306 56.734 57.1155 56.9408C57.2004 57.1477 57.2421 57.3693 57.2381 57.5924C57.2341 57.8155 57.1845 58.0355 57.0922 58.2393C56.9999 58.4431 56.8669 58.6265 56.701 58.7786L53.3938 62.0349L56.701 65.2913ZM68.3154 57.5226L63.8128 67.8587C63.6311 68.2561 63.2981 68.5673 62.8854 68.7254C62.4727 68.8834 62.0134 68.8756 61.6066 68.7036C61.1997 68.5316 60.8778 68.2092 60.7102 67.8058C60.5426 67.4025 60.5427 66.9506 60.7106 66.5473L65.2131 56.2112C65.3948 55.8138 65.7279 55.5026 66.1406 55.3445C66.5533 55.1865 67.0126 55.1943 67.4194 55.3663C67.8263 55.5383 68.1482 55.8607 68.3158 56.264C68.4834 56.6674 68.4833 57.1193 68.3154 57.5226ZM79.214 63.209L74.7114 67.6394C74.5568 67.8027 74.3704 67.9336 74.1633 68.0244C73.9562 68.1152 73.7326 68.164 73.5059 68.168C73.2791 68.1719 73.0539 68.1309 72.8437 68.0473C72.6335 67.9637 72.4425 67.8394 72.2821 67.6816C72.1218 67.5238 71.9954 67.3359 71.9105 67.129C71.8256 66.9222 71.7839 66.7006 71.7879 66.4775C71.7919 66.2544 71.8415 66.0344 71.9338 65.8306C72.026 65.6268 72.1591 65.4434 72.325 65.2913L75.6322 62.0349L72.325 58.7786C72.1591 58.6265 72.026 58.4431 71.9338 58.2393C71.8415 58.0355 71.7919 57.8155 71.7879 57.5924C71.7839 57.3693 71.8256 57.1477 71.9105 56.9408C71.9954 56.734 72.1218 56.546 72.2821 56.3883C72.4425 56.2305 72.6335 56.1061 72.8437 56.0226C73.0539 55.939 73.2791 55.898 73.5059 55.9019C73.7326 55.9059 73.9562 55.9547 74.1633 56.0455C74.3704 56.1363 74.5568 56.2672 74.7114 56.4305L79.214 60.8609C79.3708 61.015 79.4952 61.198 79.5801 61.3995C79.665 61.6009 79.7087 61.8169 79.7087 62.0349C79.7087 62.253 79.665 62.469 79.5801 62.6704C79.4952 62.8719 79.3708 63.0549 79.214 63.209Z" fill="black"/>
<path d="M64.513 39.8828C60.0603 39.8828 55.7077 41.182 52.0054 43.6161C48.3032 46.0502 45.4177 49.5099 43.7137 53.5577C42.0098 57.6055 41.5639 62.0595 42.4326 66.3566C43.3013 70.6537 45.4454 74.6008 48.5939 77.6989C51.7424 80.7969 55.7538 82.9067 60.1209 83.7614C64.488 84.6162 69.0146 84.1775 73.1283 82.5009C77.242 80.8242 80.7581 77.9849 83.2318 74.342C85.7056 70.6991 87.026 66.4162 87.026 62.0349C87.026 59.1259 86.4437 56.2453 85.3123 53.5577C84.1809 50.8701 82.5226 48.428 80.4321 46.371C78.3415 44.314 75.8597 42.6823 73.1283 41.569C70.3969 40.4558 67.4694 39.8828 64.513 39.8828ZM56.701 65.2913C56.8669 65.4434 56.9999 65.6268 57.0922 65.8306C57.1845 66.0344 57.2341 66.2544 57.2381 66.4775C57.2421 66.7006 57.2004 66.9222 57.1155 67.129C57.0306 67.3359 56.9042 67.5238 56.7438 67.6816C56.5835 67.8394 56.3925 67.9637 56.1823 68.0473C55.972 68.1309 55.7468 68.1719 55.5201 68.168C55.2934 68.164 55.0698 68.1152 54.8627 68.0244C54.6556 67.9336 54.4692 67.8027 54.3146 67.6394L49.812 63.209C49.6552 63.0549 49.5308 62.8719 49.4459 62.6704C49.361 62.469 49.3173 62.253 49.3173 62.0349C49.3173 61.8169 49.361 61.6009 49.4459 61.3995C49.5308 61.198 49.6552 61.015 49.812 60.8609L54.3146 56.4305C54.4692 56.2672 54.6556 56.1363 54.8627 56.0455C55.0698 55.9547 55.2934 55.9059 55.5201 55.9019C55.7468 55.898 55.972 55.939 56.1823 56.0226C56.3925 56.1061 56.5835 56.2305 56.7438 56.3883C56.9042 56.546 57.0306 56.734 57.1155 56.9408C57.2004 57.1477 57.2421 57.3693 57.2381 57.5924C57.2341 57.8155 57.1845 58.0355 57.0922 58.2393C56.9999 58.4431 56.8669 58.6265 56.701 58.7786L53.3938 62.0349L56.701 65.2913ZM68.3154 57.5226L63.8128 67.8587C63.6311 68.2561 63.2981 68.5673 62.8854 68.7254C62.4727 68.8834 62.0134 68.8756 61.6066 68.7036C61.1997 68.5316 60.8778 68.2092 60.7102 67.8058C60.5426 67.4025 60.5427 66.9506 60.7106 66.5473L65.2131 56.2112C65.3948 55.8138 65.7279 55.5026 66.1406 55.3445C66.5533 55.1865 67.0126 55.1943 67.4194 55.3663C67.8263 55.5383 68.1482 55.8607 68.3158 56.264C68.4834 56.6674 68.4833 57.1193 68.3154 57.5226ZM79.214 63.209L74.7114 67.6394C74.5568 67.8027 74.3704 67.9336 74.1633 68.0244C73.9562 68.1152 73.7326 68.164 73.5059 68.168C73.2791 68.1719 73.0539 68.1309 72.8437 68.0473C72.6335 67.9637 72.4425 67.8394 72.2821 67.6816C72.1218 67.5238 71.9954 67.3359 71.9105 67.129C71.8256 66.9222 71.7839 66.7006 71.7879 66.4775C71.7919 66.2544 71.8415 66.0344 71.9338 65.8306C72.026 65.6268 72.1591 65.4434 72.325 65.2913L75.6322 62.0349L72.325 58.7786C72.1591 58.6265 72.026 58.4431 71.9338 58.2393C71.8415 58.0355 71.7919 57.8155 71.7879 57.5924C71.7839 57.3693 71.8256 57.1477 71.9105 56.9408C71.9954 56.734 72.1218 56.546 72.2821 56.3883C72.4425 56.2305 72.6335 56.1061 72.8437 56.0226C73.0539 55.939 73.2791 55.898 73.5059 55.9019C73.7326 55.9059 73.9562 55.9547 74.1633 56.0455C74.3704 56.1363 74.5568 56.2672 74.7114 56.4305L79.214 60.8609C79.3708 61.015 79.4952 61.198 79.5801 61.3995C79.665 61.6009 79.7087 61.8169 79.7087 62.0349C79.7087 62.253 79.665 62.469 79.5801 62.6704C79.4952 62.8719 79.3708 63.0549 79.214 63.209Z" fill="url(#paint0_linear_280_1048)"/>
<defs>
<linearGradient id="paint0_linear_280_1048" x1="64.513" y1="39.8828" x2="64.513" y2="84.1871" gradientUnits="userSpaceOnUse">
<stop stop-color="#067A3B"/>
<stop offset="1" stop-color="#0CA464"/>
</linearGradient>
</defs>
</svg>
