<svg width="44" height="44" viewBox="0 0 44 44" fill="none" xmlns="http://www.w3.org/2000/svg">
<path d="M12.375 24.75H4.125C3.36561 24.75 2.75 25.3656 2.75 26.125V39.875C2.75 40.6344 3.36561 41.25 4.125 41.25H12.375C13.1344 41.25 13.75 40.6344 13.75 39.875V26.125C13.75 25.3656 13.1344 24.75 12.375 24.75Z" fill="url(#paint0_linear_280_1202)"/>
<path d="M39.875 13.75H31.625C30.8656 13.75 30.25 14.3656 30.25 15.125V39.875C30.25 40.6344 30.8656 41.25 31.625 41.25H39.875C40.6344 41.25 41.25 40.6344 41.25 39.875V15.125C41.25 14.3656 40.6344 13.75 39.875 13.75Z" fill="url(#paint1_linear_280_1202)"/>
<path d="M26.125 2.75H17.875C17.1156 2.75 16.5 3.36561 16.5 4.125V39.875C16.5 40.6344 17.1156 41.25 17.875 41.25H26.125C26.8844 41.25 27.5 40.6344 27.5 39.875V4.125C27.5 3.36561 26.8844 2.75 26.125 2.75Z" fill="url(#paint2_linear_280_1202)"/>
<defs>
<linearGradient id="paint0_linear_280_1202" x1="8.25" y1="24.75" x2="8.25" y2="41.25" gradientUnits="userSpaceOnUse">
<stop stop-color="#FEBD00"/>
<stop offset="1" stop-color="#FE6B00"/>
</linearGradient>
<linearGradient id="paint1_linear_280_1202" x1="35.75" y1="13.75" x2="35.75" y2="41.25" gradientUnits="userSpaceOnUse">
<stop stop-color="#FEBD00"/>
<stop offset="1" stop-color="#FE6B00"/>
</linearGradient>
<linearGradient id="paint2_linear_280_1202" x1="22" y1="2.75" x2="22" y2="41.25" gradientUnits="userSpaceOnUse">
<stop stop-color="#FEBD00"/>
<stop offset="1" stop-color="#FE6B00"/>
</linearGradient>
</defs>
</svg>
