<svg width="63" height="52" viewBox="0 0 63 52" fill="none" xmlns="http://www.w3.org/2000/svg">
<path d="M40.9572 11.401C40.324 7.34823 36.8106 4.23763 32.5826 4.23763C30.9921 4.23763 29.4637 4.67768 28.1381 5.49846C26.1214 2.10911 22.4907 0 18.4572 0C12.2263 0 7.15688 5.06942 7.15688 11.3003C7.15688 11.3389 7.15688 11.379 7.15829 11.4176C3.15374 12.0921 0 15.5834 0 19.7756C0 24.4491 3.89588 28.2508 8.56942 28.2508H39.6453C44.3189 28.2508 48.2148 24.4491 48.2148 19.7756C48.2148 15.5477 45.01 12.0342 40.9572 11.401Z" fill="#E3E3E3"/>
<g filter="url(#filter0_d_280_1093)">
<path d="M57.9257 23.7221C57.9257 23.31 57.6878 22.9803 57.2913 22.8978L53.247 22.156C53.0091 21.4966 52.7712 20.8371 52.3747 20.1777L54.5951 16.963C54.833 16.6333 54.7537 16.1387 54.5158 15.8914C54.4365 15.809 51.5817 13.0889 51.3438 12.924C51.1059 12.7592 50.868 12.6767 50.5508 12.7592C50.3922 12.8416 50.3129 12.8416 50.2336 12.924L47.2201 14.9023C47.1408 14.9847 47.0615 14.9847 46.9822 15.0672C46.3478 14.7374 45.7134 14.4902 45.079 14.3253L44.286 10.4512C44.2067 10.039 43.8895 9.79175 43.493 9.79175H39.1315C38.735 9.79175 38.4178 10.1215 38.3385 10.5336L37.5455 14.3253C36.8318 14.5726 36.118 14.8199 35.4836 15.1496C33.739 13.9956 32.7874 13.4186 32.2323 13.0889C32.153 13.0064 32.153 13.0064 32.0737 12.924V13.0064C31.5979 12.7592 31.5186 12.8416 31.2807 12.924C31.2807 13.0064 31.1221 13.0889 31.1221 13.1713L28.1087 16.0563C27.7915 16.386 27.7915 16.8806 28.1087 17.2103C28.3466 17.54 29.0603 18.5291 29.6154 19.3534L30.2498 20.425C29.9326 21.0844 29.6154 21.7438 29.4568 22.4033L25.4918 23.1451C25.0953 23.2276 24.8574 23.5573 24.8574 23.9694V28.2557C24.8574 28.5854 25.016 28.8327 25.2539 28.9975C25.4125 29.08 25.4918 29.1624 25.6504 29.08L29.5361 29.8218C29.6947 30.3164 29.9326 30.9758 30.4084 31.8001C29.2982 33.4487 28.6638 34.3554 28.3466 34.9324C28.2673 34.9324 28.2673 35.0148 28.188 35.0972C27.9501 35.5918 27.9501 35.6742 28.1087 35.9215C28.188 36.0864 28.2673 36.1688 28.4259 36.2512C28.981 36.7458 31.2807 38.9713 31.4393 39.1362C31.6772 39.3011 31.9151 39.3835 32.2323 39.3011C32.3116 39.3011 32.4702 39.2186 32.5495 39.1362L35.8008 36.9106C36.4352 37.2404 37.0697 37.4876 37.7041 37.6525L38.4971 41.5266C38.5764 41.9388 38.8936 42.186 39.2901 42.186H43.6516C44.0481 42.186 44.3653 41.9388 44.4446 41.5266L45.2376 37.6525C45.9513 37.4052 46.665 37.1579 47.2994 36.8282L50.7094 39.0538C51.0266 39.2186 51.4231 39.2186 51.661 38.9713L54.7537 35.9215C55.0709 35.6742 55.0709 35.1796 54.833 34.8499L52.6126 31.6352C52.9298 30.9758 53.247 30.3164 53.4056 29.657L57.3706 28.9151C57.7671 28.8327 58.005 28.503 58.005 28.0908L57.9257 23.7221ZM41.4312 33.1189C37.5455 33.1189 34.4527 30.4812 34.1355 26.1125C34.1355 26.0301 34.1355 26.0301 34.1355 25.9477C34.1355 22.4033 36.8318 19.3534 40.4796 18.8589C44.6825 18.3643 48.6475 21.4966 48.6475 25.9477C48.6475 29.9042 45.3169 33.1189 41.4312 33.1189Z" fill="url(#paint0_linear_280_1093)"/>
<path d="M57.9257 23.7221C57.9257 23.31 57.6878 22.9803 57.2913 22.8978L53.247 22.156C53.0091 21.4966 52.7712 20.8371 52.3747 20.1777L54.5951 16.963C54.833 16.6333 54.7537 16.1387 54.5158 15.8914C54.4365 15.809 51.5817 13.0889 51.3438 12.924C51.1059 12.7592 50.868 12.6767 50.5508 12.7592C50.3922 12.8416 50.3129 12.8416 50.2336 12.924L47.2201 14.9023C47.1408 14.9847 47.0615 14.9847 46.9822 15.0672C46.3478 14.7374 45.7134 14.4902 45.079 14.3253L44.286 10.4512C44.2067 10.039 43.8895 9.79175 43.493 9.79175H39.1315C38.735 9.79175 38.4178 10.1215 38.3385 10.5336L37.5455 14.3253C36.8318 14.5726 36.118 14.8199 35.4836 15.1496C33.739 13.9956 32.7874 13.4186 32.2323 13.0889C32.153 13.0064 32.153 13.0064 32.0737 12.924V13.0064C31.5979 12.7592 31.5186 12.8416 31.2807 12.924C31.2807 13.0064 31.1221 13.0889 31.1221 13.1713L28.1087 16.0563C27.7915 16.386 27.7915 16.8806 28.1087 17.2103C28.3466 17.54 29.0603 18.5291 29.6154 19.3534L30.2498 20.425C29.9326 21.0844 29.6154 21.7438 29.4568 22.4033L25.4918 23.1451C25.0953 23.2276 24.8574 23.5573 24.8574 23.9694V28.2557C24.8574 28.5854 25.016 28.8327 25.2539 28.9975C25.4125 29.08 25.4918 29.1624 25.6504 29.08L29.5361 29.8218C29.6947 30.3164 29.9326 30.9758 30.4084 31.8001C29.2982 33.4487 28.6638 34.3554 28.3466 34.9324C28.2673 34.9324 28.2673 35.0148 28.188 35.0972C27.9501 35.5918 27.9501 35.6742 28.1087 35.9215C28.188 36.0864 28.2673 36.1688 28.4259 36.2512C28.981 36.7458 31.2807 38.9713 31.4393 39.1362C31.6772 39.3011 31.9151 39.3835 32.2323 39.3011C32.3116 39.3011 32.4702 39.2186 32.5495 39.1362L35.8008 36.9106C36.4352 37.2404 37.0697 37.4876 37.7041 37.6525L38.4971 41.5266C38.5764 41.9388 38.8936 42.186 39.2901 42.186H43.6516C44.0481 42.186 44.3653 41.9388 44.4446 41.5266L45.2376 37.6525C45.9513 37.4052 46.665 37.1579 47.2994 36.8282L50.7094 39.0538C51.0266 39.2186 51.4231 39.2186 51.661 38.9713L54.7537 35.9215C55.0709 35.6742 55.0709 35.1796 54.833 34.8499L52.6126 31.6352C52.9298 30.9758 53.247 30.3164 53.4056 29.657L57.3706 28.9151C57.7671 28.8327 58.005 28.503 58.005 28.0908L57.9257 23.7221ZM41.4312 33.1189C37.5455 33.1189 34.4527 30.4812 34.1355 26.1125C34.1355 26.0301 34.1355 26.0301 34.1355 25.9477C34.1355 22.4033 36.8318 19.3534 40.4796 18.8589C44.6825 18.3643 48.6475 21.4966 48.6475 25.9477C48.6475 29.9042 45.3169 33.1189 41.4312 33.1189Z" fill="url(#paint1_linear_280_1093)"/>
</g>
<defs>
<filter id="filter0_d_280_1093" x="19.8574" y="8.79175" width="43.1476" height="42.3943" filterUnits="userSpaceOnUse" color-interpolation-filters="sRGB">
<feFlood flood-opacity="0" result="BackgroundImageFix"/>
<feColorMatrix in="SourceAlpha" type="matrix" values="0 0 0 0 0 0 0 0 0 0 0 0 0 0 0 0 0 0 127 0" result="hardAlpha"/>
<feOffset dy="4"/>
<feGaussianBlur stdDeviation="2.5"/>
<feComposite in2="hardAlpha" operator="out"/>
<feColorMatrix type="matrix" values="0 0 0 0 0 0 0 0 0 0 0 0 0 0 0 0 0 0 0.09 0"/>
<feBlend mode="normal" in2="BackgroundImageFix" result="effect1_dropShadow_280_1093"/>
<feBlend mode="normal" in="SourceGraphic" in2="effect1_dropShadow_280_1093" result="shape"/>
</filter>
<linearGradient id="paint0_linear_280_1093" x1="29.7052" y1="37.4484" x2="52.6181" y2="14.0026" gradientUnits="userSpaceOnUse">
<stop stop-color="#FD346E"/>
<stop offset="1" stop-color="#FF6491"/>
</linearGradient>
<linearGradient id="paint1_linear_280_1093" x1="45.6134" y1="7.49609" x2="36.7747" y2="55.2156" gradientUnits="userSpaceOnUse">
<stop stop-color="#777777"/>
<stop offset="1" stop-color="#DDDDDD"/>
</linearGradient>
</defs>
</svg>
