<svg width="53" height="51" viewBox="0 0 53 51" fill="none" xmlns="http://www.w3.org/2000/svg">
<path fill-rule="evenodd" clip-rule="evenodd" d="M28.6875 1.07461V22.0238H51.6416C51.9641 22.0238 52.2416 21.8972 52.453 21.6537C52.6642 21.4102 52.7509 21.1177 52.7055 20.7986C51.0867 9.39028 41.534 0.535361 29.8106 0.00126446C29.5065 -0.0125928 29.2399 0.0875234 29.0196 0.297853C28.7995 0.508076 28.6875 0.770076 28.6875 1.07461Z" fill="#E2E2E2"/>
<path fill-rule="evenodd" clip-rule="evenodd" d="M30.9062 26.4531L45.0712 40.618C45.2865 40.8332 45.551 40.9393 45.8555 40.9323C46.1599 40.9252 46.4193 40.8071 46.6245 40.5822C49.8275 37.0699 52.0122 32.6129 52.7123 27.6782C52.7576 27.359 52.6712 27.0665 52.4599 26.8231C52.2486 26.5797 51.9712 26.4531 51.6488 26.4531H30.9062Z" fill="#E7A6E8"/>
<path fill-rule="evenodd" clip-rule="evenodd" d="M40.6047 44.0015C36.2928 47.9335 30.5573 50.3313 24.2618 50.3313C10.8623 50.3313 0 39.469 0 26.0695C0 13.0465 10.2605 2.42003 23.1386 1.83329C23.4427 1.81944 23.7093 1.91966 23.9295 2.12999C24.1497 2.34032 24.2618 2.60232 24.2618 2.90686V26.0696L40.6403 42.4482C40.8556 42.6634 40.9617 42.9281 40.9547 43.2325C40.9477 43.5369 40.8296 43.7963 40.6047 44.0015Z" fill="url(#paint0_linear_280_1164)"/>
<path fill-rule="evenodd" clip-rule="evenodd" d="M40.6047 44.0015C36.2928 47.9335 30.5573 50.3313 24.2618 50.3313C10.8623 50.3313 0 39.469 0 26.0695C0 13.0465 10.2605 2.42003 23.1386 1.83329C23.4427 1.81944 23.7093 1.91966 23.9295 2.12999C24.1497 2.34032 24.2618 2.60232 24.2618 2.90686V26.0696L40.6403 42.4482C40.8556 42.6634 40.9617 42.9281 40.9547 43.2325C40.9477 43.5369 40.8296 43.7963 40.6047 44.0015Z" fill="url(#paint1_linear_280_1164)"/>
<defs>
<linearGradient id="paint0_linear_280_1164" x1="5.98967" y1="43.2382" x2="39.8182" y2="14.6719" gradientUnits="userSpaceOnUse">
<stop stop-color="#FD346E"/>
<stop offset="1" stop-color="#FF6491"/>
</linearGradient>
<linearGradient id="paint1_linear_280_1164" x1="20.6689" y1="61.024" x2="33.3169" y2="4.67079" gradientUnits="userSpaceOnUse">
<stop stop-color="#BC35EC"/>
<stop offset="1" stop-color="#F572D8"/>
</linearGradient>
</defs>
</svg>
