<svg width="137" height="19" viewBox="0 0 137 19" fill="none" xmlns="http://www.w3.org/2000/svg">
<g clip-path="url(#clip0_368_77)">
<path d="M136.819 17.9618H134.179V10.9298C134.179 9.76185 133.987 8.90585 133.603 8.36185C133.235 7.81785 132.683 7.54585 131.947 7.54585C131.435 7.54585 130.923 7.67385 130.411 7.92985C129.915 8.18585 129.467 8.53785 129.067 8.98585C128.667 9.41785 128.379 9.92185 128.203 10.4978V17.9618H125.563V5.40985H127.963V7.92985C128.283 7.36985 128.699 6.88985 129.211 6.48985C129.739 6.07385 130.331 5.75385 130.987 5.52985C131.643 5.30585 132.339 5.19385 133.075 5.19385C133.827 5.19385 134.443 5.32985 134.923 5.60185C135.419 5.87385 135.803 6.24985 136.075 6.72985C136.363 7.19385 136.555 7.73785 136.651 8.36185C136.763 8.96985 136.819 9.61785 136.819 10.3058V17.9618Z" fill="#0E0B0D"/>
<path d="M116.765 18.2018C115.773 18.2018 114.885 18.0338 114.101 17.6978C113.317 17.3458 112.637 16.8658 112.061 16.2578C111.501 15.6498 111.069 14.9618 110.765 14.1938C110.461 13.4098 110.309 12.5778 110.309 11.6978C110.309 10.8178 110.461 9.98585 110.765 9.20185C111.069 8.41785 111.501 7.72985 112.061 7.13785C112.637 6.52985 113.317 6.05785 114.101 5.72185C114.901 5.36985 115.789 5.19385 116.765 5.19385C117.741 5.19385 118.621 5.36985 119.405 5.72185C120.205 6.05785 120.885 6.52985 121.445 7.13785C122.021 7.72985 122.461 8.41785 122.765 9.20185C123.069 9.98585 123.221 10.8178 123.221 11.6978C123.221 12.5778 123.069 13.4098 122.765 14.1938C122.461 14.9618 122.021 15.6498 121.445 16.2578C120.885 16.8658 120.205 17.3458 119.405 17.6978C118.621 18.0338 117.741 18.2018 116.765 18.2018ZM113.021 11.7218C113.021 12.5218 113.189 13.2418 113.525 13.8818C113.861 14.5218 114.309 15.0258 114.869 15.3938C115.429 15.7618 116.061 15.9458 116.765 15.9458C117.453 15.9458 118.077 15.7618 118.637 15.3938C119.213 15.0098 119.669 14.4978 120.005 13.8578C120.341 13.2018 120.509 12.4818 120.509 11.6978C120.509 10.8978 120.341 10.1778 120.005 9.53785C119.669 8.89785 119.213 8.39385 118.637 8.02585C118.077 7.64185 117.453 7.44985 116.765 7.44985C116.061 7.44985 115.429 7.64185 114.869 8.02585C114.309 8.40985 113.861 8.92185 113.525 9.56185C113.189 10.1858 113.021 10.9058 113.021 11.7218Z" fill="#0E0B0D"/>
<path d="M103.931 0.441895H106.571V14.3379C106.571 14.9779 106.667 15.3859 106.859 15.5619C107.051 15.7379 107.291 15.8259 107.579 15.8259C107.899 15.8259 108.195 15.7939 108.467 15.7299C108.755 15.6659 109.003 15.5859 109.211 15.4899L109.595 17.5779C109.211 17.7379 108.755 17.8739 108.227 17.9859C107.699 18.0979 107.227 18.1539 106.811 18.1539C105.915 18.1539 105.211 17.9059 104.699 17.4099C104.187 16.8979 103.931 16.1939 103.931 15.2979V0.441895Z" fill="#0E0B0D"/>
<path d="M95.3211 18.2018C94.3451 18.2018 93.4571 18.0338 92.6571 17.6978C91.8731 17.3458 91.1931 16.8738 90.6171 16.2818C90.0411 15.6738 89.5931 14.9858 89.2731 14.2178C88.9691 13.4338 88.8171 12.6018 88.8171 11.7218C88.8171 10.5378 89.0891 9.45785 89.6331 8.48185C90.1771 7.48985 90.9371 6.69785 91.9131 6.10585C92.8891 5.49785 94.0331 5.19385 95.3451 5.19385C96.6571 5.19385 97.7851 5.49785 98.7291 6.10585C99.6891 6.69785 100.433 7.48185 100.961 8.45785C101.489 9.43385 101.753 10.4818 101.753 11.6018C101.753 11.7938 101.745 11.9778 101.729 12.1538C101.713 12.3138 101.697 12.4498 101.681 12.5618H91.6251C91.6731 13.2978 91.8731 13.9458 92.2251 14.5058C92.5931 15.0498 93.0571 15.4818 93.6171 15.8018C94.1771 16.1058 94.7771 16.2578 95.4171 16.2578C96.1211 16.2578 96.7851 16.0818 97.4091 15.7298C98.0491 15.3778 98.4811 14.9138 98.7051 14.3378L100.961 14.9858C100.689 15.5938 100.273 16.1458 99.7131 16.6418C99.1691 17.1218 98.5211 17.5058 97.7691 17.7938C97.0171 18.0658 96.2011 18.2018 95.3211 18.2018ZM91.5531 10.8098H99.1371C99.0891 10.0898 98.8811 9.45785 98.5131 8.91385C98.1611 8.35385 97.7051 7.92185 97.1451 7.61785C96.6011 7.29785 95.9931 7.13785 95.3211 7.13785C94.6651 7.13785 94.0571 7.29785 93.4971 7.61785C92.9531 7.92185 92.5051 8.35385 92.1531 8.91385C91.8011 9.45785 91.6011 10.0898 91.5531 10.8098Z" fill="#0E0B0D"/>
<path d="M86.5909 17.9618H83.9509V10.9298C83.9509 9.76185 83.7589 8.90585 83.3749 8.36185C82.9909 7.81785 82.4309 7.54585 81.6949 7.54585C80.9589 7.54585 80.2709 7.82585 79.6309 8.38585C79.0069 8.92985 78.5669 9.64185 78.3109 10.5218V17.9618H75.6709V10.9298C75.6709 9.76185 75.4789 8.90585 75.0949 8.36185C74.7109 7.81785 74.1589 7.54585 73.4389 7.54585C72.7029 7.54585 72.0149 7.81785 71.3749 8.36185C70.7509 8.90585 70.3029 9.61785 70.0309 10.4978V17.9618H67.3909V5.40985H69.7909V7.92985C70.2869 7.04985 70.9349 6.37785 71.7349 5.91385C72.5509 5.43385 73.4789 5.19385 74.5189 5.19385C75.5589 5.19385 76.3749 5.46585 76.9669 6.00985C77.5749 6.55385 77.9509 7.23385 78.0949 8.04985C78.6389 7.12185 79.3029 6.41785 80.0869 5.93785C80.8869 5.44185 81.7989 5.19385 82.8229 5.19385C83.5589 5.19385 84.1749 5.32985 84.6709 5.60185C85.1669 5.87385 85.5509 6.24985 85.8229 6.72985C86.0949 7.19385 86.2869 7.73785 86.3989 8.36185C86.5269 8.96985 86.5909 9.61785 86.5909 10.3058V17.9618Z" fill="#0E0B0D"/>
<path d="M65.4704 7.69004C64.4464 7.70604 63.5344 7.93804 62.7344 8.38604C61.9504 8.83404 61.3904 9.46604 61.0544 10.282V17.962H58.4144V5.41004H60.8624V8.21804C61.2944 7.35404 61.8624 6.66604 62.5664 6.15404C63.2704 5.62604 64.0144 5.33804 64.7984 5.29004C64.9584 5.29004 65.0864 5.29004 65.1824 5.29004C65.2944 5.29004 65.3904 5.29804 65.4704 5.31404V7.69004Z" fill="#0E0B0D"/>
<path d="M49.8289 18.2018C48.8529 18.2018 47.965 18.0338 47.165 17.6978C46.381 17.3458 45.701 16.8738 45.125 16.2818C44.549 15.6738 44.1009 14.9858 43.7809 14.2178C43.4769 13.4338 43.325 12.6018 43.325 11.7218C43.325 10.5378 43.5969 9.45785 44.1409 8.48185C44.6849 7.48985 45.4449 6.69785 46.4209 6.10585C47.3969 5.49785 48.541 5.19385 49.853 5.19385C51.165 5.19385 52.2929 5.49785 53.2369 6.10585C54.1969 6.69785 54.941 7.48185 55.469 8.45785C55.997 9.43385 56.261 10.4818 56.261 11.6018C56.261 11.7938 56.2529 11.9778 56.2369 12.1538C56.2209 12.3138 56.2049 12.4498 56.1889 12.5618H46.1329C46.1809 13.2978 46.3809 13.9458 46.7329 14.5058C47.1009 15.0498 47.565 15.4818 48.125 15.8018C48.685 16.1058 49.2849 16.2578 49.9249 16.2578C50.6289 16.2578 51.293 16.0818 51.917 15.7298C52.5569 15.3778 52.989 14.9138 53.213 14.3378L55.469 14.9858C55.197 15.5938 54.781 16.1458 54.221 16.6418C53.677 17.1218 53.029 17.5058 52.277 17.7938C51.525 18.0658 50.7089 18.2018 49.8289 18.2018ZM46.061 10.8098H53.645C53.597 10.0898 53.389 9.45785 53.021 8.91385C52.669 8.35385 52.213 7.92185 51.653 7.61785C51.109 7.29785 50.5009 7.13785 49.8289 7.13785C49.1729 7.13785 48.565 7.29785 48.005 7.61785C47.461 7.92185 47.0129 8.35385 46.6609 8.91385C46.3089 9.45785 46.109 10.0898 46.061 10.8098Z" fill="#0E0B0D"/>
<path d="M42.4765 17.3137C42.2525 17.4257 41.9725 17.5457 41.6365 17.6737C41.3005 17.8017 40.9165 17.9137 40.4845 18.0097C40.0685 18.1057 39.6365 18.1537 39.1885 18.1537C38.6445 18.1537 38.1405 18.0577 37.6765 17.8657C37.2125 17.6737 36.8365 17.3697 36.5485 16.9537C36.2765 16.5217 36.1405 15.9697 36.1405 15.2977V7.44974H34.4845V5.40974H36.1405V1.28174H38.7805V5.40974H41.5165V7.44974H38.7805V14.4577C38.8125 14.8897 38.9485 15.2097 39.1885 15.4177C39.4445 15.6257 39.7565 15.7297 40.1245 15.7297C40.4925 15.7297 40.8445 15.6657 41.1805 15.5377C41.5165 15.4097 41.7645 15.3057 41.9245 15.2257L42.4765 17.3137Z" fill="#0E0B0D"/>
<path d="M21.1274 14.2898C21.1274 13.4898 21.3514 12.7938 21.7994 12.2018C22.2634 11.5938 22.8954 11.1298 23.6954 10.8098C24.4954 10.4738 25.4234 10.3058 26.4794 10.3058C27.0394 10.3058 27.6074 10.3458 28.1834 10.4258C28.7754 10.5058 29.2954 10.6338 29.7434 10.8098V10.0178C29.7434 9.13785 29.4794 8.44985 28.9514 7.95385C28.4234 7.45785 27.6634 7.20985 26.6714 7.20985C25.9674 7.20985 25.3034 7.33785 24.6794 7.59385C24.0554 7.83385 23.3914 8.17785 22.6874 8.62585L21.7994 6.84985C22.6314 6.28985 23.4634 5.87385 24.2954 5.60185C25.1434 5.32985 26.0314 5.19385 26.9594 5.19385C28.6394 5.19385 29.9594 5.64185 30.9194 6.53785C31.8954 7.41785 32.3834 8.67385 32.3834 10.3058V14.9858C32.3834 15.2898 32.4314 15.5058 32.5274 15.6338C32.6394 15.7618 32.8234 15.8338 33.0794 15.8498V17.9618C32.8394 18.0098 32.6234 18.0418 32.4314 18.0578C32.2394 18.0738 32.0794 18.0818 31.9514 18.0818C31.3914 18.0818 30.9674 17.9458 30.6794 17.6738C30.3914 17.4018 30.2234 17.0818 30.1754 16.7138L30.1034 15.9938C29.5594 16.6978 28.8634 17.2418 28.0154 17.6258C27.1674 18.0098 26.3114 18.2018 25.4474 18.2018C24.6154 18.2018 23.8714 18.0338 23.2154 17.6978C22.5594 17.3458 22.0474 16.8738 21.6794 16.2818C21.3114 15.6898 21.1274 15.0258 21.1274 14.2898ZM29.1194 15.0578C29.3114 14.8498 29.4634 14.6418 29.5754 14.4338C29.6874 14.2258 29.7434 14.0418 29.7434 13.8818V12.4418C29.2954 12.2658 28.8234 12.1378 28.3274 12.0578C27.8314 11.9618 27.3434 11.9138 26.8634 11.9138C25.9034 11.9138 25.1194 12.1058 24.5114 12.4898C23.9194 12.8738 23.6234 13.4018 23.6234 14.0738C23.6234 14.4418 23.7194 14.7938 23.9114 15.1298C24.1194 15.4658 24.4074 15.7378 24.7754 15.9458C25.1594 16.1538 25.6314 16.2578 26.1914 16.2578C26.7674 16.2578 27.3194 16.1458 27.8474 15.9218C28.3754 15.6978 28.7994 15.4098 29.1194 15.0578Z" fill="#0E0B0D"/>
<path d="M18.0702 5.40967H20.5902L15.3102 17.9617H13.0542L10.7982 12.2977L8.54218 17.9617H6.28618L0.982178 5.40967H3.50218L7.53418 15.3937L9.31018 10.7617L7.15018 5.43367H9.38218L10.7982 9.34567L12.1902 5.43367H14.4222L12.2862 10.7617L14.0622 15.3937L18.0702 5.40967Z" fill="#0E0B0D"/>
</g>
<defs>
<clipPath id="clip0_368_77">
<rect width="135.837" height="17.76" fill="white" transform="translate(0.982178 0.441895)"/>
</clipPath>
</defs>
</svg>
