<svg width="54" height="56" viewBox="0 0 54 56" fill="none" xmlns="http://www.w3.org/2000/svg">
<path d="M31.9042 36.6591L37.7553 46.6641L48.5342 28.0031L31.9042 36.6591Z" fill="url(#paint0_linear_359_67)"/>
<path d="M31.9124 19.4477L48.5541 28.0049L31.9241 36.6609L31.9124 19.4477Z" fill="url(#paint1_linear_359_67)"/>
<path d="M37.7401 9.33085L31.8973 19.4463L48.539 28.0035L37.7401 9.33085Z" fill="url(#paint2_linear_359_67)"/>
<path d="M16.15 9.3303L31.8805 19.4548L37.7233 9.33934L16.15 9.3303Z" fill="url(#paint3_linear_359_67)"/>
<path d="M16.994 28.0518L16.1787 9.3283L31.9093 19.4528L16.994 28.0518Z" fill="url(#paint4_linear_359_67)"/>
<path d="M5.38916 27.9849L16.9832 28.0473L16.168 9.32385L5.38916 27.9849Z" fill="url(#paint5_linear_359_67)"/>
<path d="M16.1821 46.6508L16.9797 28.0402L5.38758 27.9765L16.1821 46.6508Z" fill="url(#paint6_linear_359_67)"/>
<path d="M31.9204 36.6596L16.1938 46.653L16.9934 28.0454L31.9204 36.6596Z" fill="url(#paint7_linear_359_67)"/>
<path d="M37.7648 46.6693L16.187 46.6577L31.9136 36.6644L37.7648 46.6693Z" fill="url(#paint8_linear_359_67)"/>
<defs>
<linearGradient id="paint0_linear_359_67" x1="33.3923" y1="44.1459" x2="44.164" y2="25.4803" gradientUnits="userSpaceOnUse">
<stop stop-color="#A9208B"/>
<stop offset="1" stop-color="#492683"/>
</linearGradient>
<linearGradient id="paint1_linear_359_67" x1="32.5514" y1="37.0252" x2="40.4547" y2="23.33" gradientUnits="userSpaceOnUse">
<stop stop-color="#F71475"/>
<stop offset="1" stop-color="#C9156C"/>
</linearGradient>
<linearGradient id="paint2_linear_359_67" x1="39.9909" y1="24.1179" x2="45.8306" y2="13.9987" gradientUnits="userSpaceOnUse">
<stop stop-color="#F71475"/>
<stop offset="1" stop-color="#FA7DA3"/>
</linearGradient>
<linearGradient id="paint3_linear_359_67" x1="23.7888" y1="14.7861" x2="29.6285" y2="4.66686" gradientUnits="userSpaceOnUse">
<stop stop-color="#F5A630"/>
<stop offset="1" stop-color="#D81B12"/>
</linearGradient>
<linearGradient id="paint4_linear_359_67" x1="16.363" y1="27.6899" x2="24.2663" y2="13.9947" gradientUnits="userSpaceOnUse">
<stop stop-color="#FB9600"/>
<stop offset="1" stop-color="#FEBD00"/>
</linearGradient>
<linearGradient id="paint5_linear_359_67" x1="9.75078" y1="30.5016" x2="20.5225" y2="11.836" gradientUnits="userSpaceOnUse">
<stop stop-color="#F8E7C5"/>
<stop offset="1" stop-color="#FEBD00"/>
</linearGradient>
<linearGradient id="paint6_linear_359_67" x1="8.09172" y1="41.9799" x2="16.3488" y2="27.6782" gradientUnits="userSpaceOnUse">
<stop stop-color="#B4E4E1"/>
<stop offset="1" stop-color="#2BC9BF"/>
</linearGradient>
<linearGradient id="paint7_linear_359_67" x1="16.1952" y1="46.6538" x2="24.4494" y2="32.3505" gradientUnits="userSpaceOnUse">
<stop stop-color="#049D94"/>
<stop offset="1" stop-color="#08CEC1"/>
</linearGradient>
<linearGradient id="paint8_linear_359_67" x1="24.281" y1="51.3287" x2="32.5353" y2="37.0254" gradientUnits="userSpaceOnUse">
<stop stop-color="#0C7069"/>
<stop offset="1" stop-color="#32AFA7"/>
</linearGradient>
</defs>
</svg>
