<svg width="61" height="54" viewBox="0 0 61 54" fill="none" xmlns="http://www.w3.org/2000/svg">
<path d="M11.809 34.7801H18.8942C20.1985 34.7801 21.2559 33.7227 21.2559 32.4184C21.2559 31.114 20.1985 30.0566 18.8942 30.0566H11.809C10.5046 30.0566 9.44727 31.114 9.44727 32.4184C9.44727 33.7227 10.5046 34.7801 11.809 34.7801Z" fill="black"/>
<path d="M11.809 25.3333H18.8942C20.1985 25.3333 21.2559 24.276 21.2559 22.9716C21.2559 21.6672 20.1985 20.6099 18.8942 20.6099H11.809C10.5046 20.6099 9.44727 21.6672 9.44727 22.9716C9.44727 24.276 10.5046 25.3333 11.809 25.3333Z" fill="black"/>
<path d="M25.6777 32.4182C25.6777 33.7226 26.7351 34.78 28.0395 34.78C32.9779 34.78 37.6208 32.8568 41.1129 29.3648L58.3842 12.0918C61.153 9.32308 61.1535 4.84112 58.3842 2.07188C55.6218 -0.690627 51.1268 -0.690627 48.3642 2.07188L31.0929 19.3448C27.601 22.837 25.6777 27.4798 25.6777 32.4182ZM51.7044 5.41195C52.625 4.49111 54.1235 4.49111 55.0442 5.41195C55.9672 6.33467 55.9675 7.82882 55.0442 8.75189L37.7728 26.0248C35.7985 27.9992 33.33 29.2999 30.6461 29.8116C31.1578 27.1279 32.4586 24.6593 34.4328 22.6849L51.7044 5.41195Z" fill="black"/>
<path d="M7.08517 53.6734C8.83001 53.6734 10.5071 53.0331 11.8077 51.8702L15.0724 48.95H39.2046C45.716 48.95 51.0132 43.6526 51.0132 37.1414V31.8437C51.0132 30.5393 49.9559 29.4819 48.6515 29.4819C47.3471 29.4819 46.2898 30.5393 46.2898 31.8437V37.1414C46.2898 41.0481 43.1114 44.2265 39.2046 44.2265H14.1703C13.5894 44.2265 13.0288 44.4406 12.5958 44.8279L8.65902 48.3494C8.22576 48.7367 7.66686 48.95 7.08517 48.95C5.78291 48.95 4.72345 47.8905 4.72345 46.5882V18.2476C4.72345 14.3408 7.90185 11.1624 11.8086 11.1624H31.6174C32.9218 11.1624 33.9792 10.1051 33.9792 8.80069C33.9792 7.49631 32.9218 6.43896 31.6174 6.43896H11.8086C5.29723 6.43896 0 11.7363 0 18.2476V46.5882C0 50.495 3.17841 53.6734 7.08517 53.6734Z" fill="black"/>
</svg>
