<svg width="51" height="48" viewBox="0 0 51 48" fill="none" xmlns="http://www.w3.org/2000/svg">
<path d="M45.5357 10.9286H41.8929V5.46429C41.8929 4.01507 41.3172 2.6252 40.2924 1.60045C39.2677 0.5757 37.8778 0 36.4286 0H5.46429C4.01507 0 2.6252 0.5757 1.60045 1.60045C0.5757 2.6252 0 4.01507 0 5.46429V41.8929C0 43.3421 0.5757 44.7319 1.60045 45.7567C2.6252 46.7814 4.01507 47.3571 5.46429 47.3571H44.625C46.3158 47.3571 47.9373 46.6855 49.1328 45.4899C50.3284 44.2944 51 42.6729 51 40.9821V16.3929C51 14.9436 50.4243 13.5538 49.3995 12.529C48.3748 11.5043 46.9849 10.9286 45.5357 10.9286ZM3.64286 41.8929V5.46429C3.64286 4.98121 3.83476 4.51793 4.17634 4.17634C4.51793 3.83476 4.98121 3.64286 5.46429 3.64286H36.4286C36.9116 3.64286 37.3749 3.83476 37.7165 4.17634C38.0581 4.51793 38.25 4.98121 38.25 5.46429V40.9821C38.2539 41.9293 38.4718 42.8633 38.8875 43.7143H5.46429C4.98121 43.7143 4.51793 43.5224 4.17634 43.1808C3.83476 42.8392 3.64286 42.3759 3.64286 41.8929ZM47.3571 40.9821C47.3571 41.7068 47.0693 42.4017 46.5569 42.9141C46.0445 43.4264 45.3496 43.7143 44.625 43.7143C43.9004 43.7143 43.2055 43.4264 42.6931 42.9141C42.1807 42.4017 41.8929 41.7068 41.8929 40.9821V14.5714H45.5357C46.0188 14.5714 46.4821 14.7633 46.8237 15.1049C47.1652 15.4465 47.3571 15.9098 47.3571 16.3929V40.9821Z" fill="black"/>
<path d="M32.7857 12.75H14.5714C14.0884 12.75 13.6251 12.9419 13.2835 13.2835C12.9419 13.6251 12.75 14.0884 12.75 14.5714C12.75 15.0545 12.9419 15.5178 13.2835 15.8594C13.6251 16.201 14.0884 16.3929 14.5714 16.3929H32.7857C33.2688 16.3929 33.7321 16.201 34.0737 15.8594C34.4152 15.5178 34.6071 15.0545 34.6071 14.5714C34.6071 14.0884 34.4152 13.6251 34.0737 13.2835C33.7321 12.9419 33.2688 12.75 32.7857 12.75Z" fill="black"/>
<path d="M32.7852 21.8569H9.10658C8.62351 21.8569 8.16022 22.0488 7.81864 22.3904C7.47706 22.732 7.28516 23.1953 7.28516 23.6784C7.28516 24.1614 7.47706 24.6247 7.81864 24.9663C8.16022 25.3079 8.62351 25.4998 9.10658 25.4998H32.7852C33.2682 25.4998 33.7315 25.3079 34.0731 24.9663C34.4147 24.6247 34.6066 24.1614 34.6066 23.6784C34.6066 23.1953 34.4147 22.732 34.0731 22.3904C33.7315 22.0488 33.2682 21.8569 32.7852 21.8569Z" fill="black"/>
<path d="M32.7852 30.9644H9.10658C8.62351 30.9644 8.16022 31.1563 7.81864 31.4978C7.47706 31.8394 7.28516 32.3027 7.28516 32.7858C7.28516 33.2689 7.47706 33.7321 7.81864 34.0737C8.16022 34.4153 8.62351 34.6072 9.10658 34.6072H32.7852C33.2682 34.6072 33.7315 34.4153 34.0731 34.0737C34.4147 33.7321 34.6066 33.2689 34.6066 32.7858C34.6066 32.3027 34.4147 31.8394 34.0731 31.4978C33.7315 31.1563 33.2682 30.9644 32.7852 30.9644Z" fill="black"/>
</svg>
