<svg width="47" height="57" viewBox="0 0 47 57" fill="none" xmlns="http://www.w3.org/2000/svg">
<path d="M45.9793 20.0668C45.1174 19.2049 43.72 19.2049 42.8582 20.0668L37.7982 25.1269L34.945 22.2737C34.0831 21.4118 32.6858 21.4118 31.824 22.2737C30.9622 23.1356 30.9622 24.5328 31.824 25.3946L36.2377 29.8083C36.6686 30.2392 37.2334 30.4547 37.7982 30.4547C38.3629 30.4547 38.9277 30.2392 39.3587 29.8083L45.9793 23.1878C46.8409 22.326 46.8409 20.9286 45.9793 20.0668Z" fill="black"/>
<path d="M26.7627 19.4204C26.7627 15.7698 23.7927 12.7998 20.1421 12.7998C16.4916 12.7998 13.5216 15.7698 13.5216 19.4204C13.5216 23.0709 16.4916 26.0409 20.1421 26.0409C23.7927 26.0409 26.7627 23.0709 26.7627 19.4204ZM20.1421 21.6272C18.9253 21.6272 17.9353 20.6372 17.9353 19.4204C17.9353 18.2035 18.9253 17.2135 20.1421 17.2135C21.359 17.2135 22.349 18.2035 22.349 19.4204C22.349 20.6372 21.359 21.6272 20.1421 21.6272Z" fill="black"/>
<path d="M28.9696 39.2821H11.3148C9.63056 39.2821 8.56631 37.4657 9.38968 35.9963L12.4377 30.5576C13.9988 27.7716 16.951 26.041 20.1422 26.041C23.3334 26.041 26.2857 27.7717 27.8468 30.5577L30.8948 35.9963C31.7182 37.4657 30.6539 39.2821 28.9696 39.2821ZM15.0814 34.8684H25.2031L23.9964 32.7154C23.2152 31.3209 21.7382 30.4547 20.1422 30.4547C18.5462 30.4547 17.0693 31.3209 16.288 32.7153V32.7154L15.0814 34.8684Z" fill="black"/>
<path d="M37.7977 17.972C39.0165 17.972 40.0046 16.984 40.0046 15.7652V11.0343C40.0046 4.94997 35.0547 0 28.9703 0H11.3155C5.2311 0 0.28125 4.94997 0.28125 11.0343V45.4611C0.28125 51.5454 5.2311 56.4954 11.3155 56.4954H28.9703C35.0547 56.4954 40.0046 51.5454 40.0046 45.4611V37.0751C40.0046 35.8562 39.0165 34.8682 37.7977 34.8682C36.5789 34.8682 35.5909 35.8562 35.5909 37.0751V45.4611C35.5909 49.1117 32.6209 52.0817 28.9703 52.0817H11.3155C7.66493 52.0817 4.69495 49.1117 4.69495 45.4611V11.0343C4.69495 7.38368 7.66493 4.4137 11.3155 4.4137H28.9703C32.6209 4.4137 35.5909 7.38368 35.5909 11.0343V15.7652C35.5909 16.984 36.5789 17.972 37.7977 17.972Z" fill="black"/>
<path d="M17.9354 43.6958C16.7166 43.6958 15.7286 44.6838 15.7286 45.9027C15.7286 47.1215 16.7166 48.1095 17.9354 48.1095H22.3492C23.568 48.1095 24.556 47.1215 24.556 45.9027C24.556 44.6838 23.568 43.6958 22.3492 43.6958H17.9354Z" fill="black"/>
</svg>
