<svg width="54" height="47" viewBox="0 0 54 47" fill="none" xmlns="http://www.w3.org/2000/svg">
<path d="M32.9062 25.2129C32.9062 23.9404 33.5192 22.7293 34.5463 21.9731C36.1609 20.7842 37.125 18.8784 37.125 16.875C37.125 13.3857 34.2862 10.5469 30.7969 10.5469C27.3075 10.5469 24.4688 13.3857 24.4688 16.875C24.4688 18.04 25.4131 18.9844 26.5781 18.9844C27.7431 18.9844 28.6875 18.04 28.6875 16.875C28.6875 15.7119 29.6338 14.7656 30.7969 14.7656C31.96 14.7656 32.9062 15.7119 32.9062 16.875C32.9062 17.553 32.5923 18.1729 32.045 18.5758C29.9426 20.1236 28.6875 22.6048 28.6875 25.2129V25.3125C28.6875 26.4775 29.6319 27.4219 30.7969 27.4219C31.9619 27.4219 32.9062 26.4775 32.9062 25.3125V25.2129Z" fill="black"/>
<path d="M30.7969 35.8594C31.9619 35.8594 32.9062 34.915 32.9062 33.75C32.9062 32.585 31.9619 31.6406 30.7969 31.6406C29.6319 31.6406 28.6875 32.585 28.6875 33.75C28.6875 34.915 29.6319 35.8594 30.7969 35.8594Z" fill="black"/>
<path d="M30.7969 0C18.0328 0 7.59375 10.4391 7.59375 23.2031V35.8594C7.59375 38.9072 5.87756 42.1875 2.10938 42.1875C0.944367 42.1875 0 43.1319 0 44.2969C0 45.4619 0.944367 46.4062 2.10938 46.4062H30.7969C43.5744 46.4062 54 35.9807 54 23.2031C54 10.4391 43.5609 0 30.7969 0ZM30.7969 42.1875H10.0047C11.1774 40.4062 11.8125 38.2038 11.8125 35.8594V23.2031C11.8125 12.7708 20.3645 4.21875 30.7969 4.21875C41.2291 4.21875 49.7812 12.7709 49.7812 23.2031C49.7812 33.6711 41.2649 42.1875 30.7969 42.1875Z" fill="black"/>
</svg>
