<svg width="30" height="30" viewBox="0 0 30 30" fill="none" xmlns="http://www.w3.org/2000/svg">
<path d="M15 30C23.2843 30 30 23.2843 30 15C30 6.71573 23.2843 0 15 0C6.71573 0 0 6.71573 0 15C0 23.2843 6.71573 30 15 30Z" fill="url(#paint0_linear_280_884)"/>
<path fill-rule="evenodd" clip-rule="evenodd" d="M11.7833 20.6067L7.88144 16.3577C7.34726 15.776 7.37792 14.8557 7.94966 14.3122C8.52139 13.7687 9.42596 13.8 9.96014 14.3816L12.9699 17.659L17.7339 13.1302C17.7767 13.0894 17.8215 13.0521 17.8678 13.0177L20.1081 10.8881C20.6798 10.3446 21.5845 10.3758 22.1186 10.9575C22.6528 11.5392 22.622 12.4596 22.0504 13.0031L15.2078 19.5079L15.2005 19.4999L12.8336 21.75L11.7833 20.6067Z" fill="white"/>
<defs>
<linearGradient id="paint0_linear_280_884" x1="15.1402" y1="36.6142" x2="21.839" y2="1.26963" gradientUnits="userSpaceOnUse">
<stop stop-color="#710051"/>
<stop offset="1" stop-color="#B205A1"/>
</linearGradient>
</defs>
</svg>
