<svg width="25" height="32" viewBox="0 0 25 32" fill="none" xmlns="http://www.w3.org/2000/svg">
<path d="M19.6078 13.9995C16.6348 13.9995 14.2157 16.4669 14.2157 19.4993C14.2157 22.5317 16.6348 24.9991 19.6078 24.9991C22.5809 24.9991 25 22.5317 25 19.4993C25 16.4669 22.5809 13.9995 19.6078 13.9995ZM21.894 18.6168C20.3265 21.0153 20.771 20.3353 19.9332 21.6167C19.6323 22.077 19.023 22.1992 18.5735 21.8935L17.1029 20.8936C16.6526 20.5873 16.5312 19.9667 16.8315 19.5068C17.1317 19.0474 17.7402 18.9237 18.1912 19.2299L18.8456 19.6749C20.4092 17.283 20.3251 17.3492 20.5882 17.1962C21.4812 16.6694 22.4678 17.7377 21.894 18.6168ZM15.1961 25.4953V30.9988C15.1961 31.765 16.0097 32.2478 16.663 31.8669L19.6078 30.1507L22.5527 31.8669C23.2034 32.2473 24.0196 31.7671 24.0196 30.9988V25.4953C21.4076 27.4997 17.8118 27.5026 15.1961 25.4953ZM21.5686 12.2708V2.17179C21.5686 0.974338 20.6134 0 19.4393 0H2.12929C0.95527 0 0 0.974338 0 2.17179V25.3272C0 26.5246 0.95527 27.499 2.12929 27.499H13.2353C13.2353 23.1958 13.2287 23.4622 13.2506 23.2641C9.96863 17.5252 15.1947 10.4654 21.5686 12.2708ZM5.88235 4.99981H14.2157C14.7574 4.99981 15.1961 5.44729 15.1961 5.99977C15.1961 6.55225 14.7574 6.99974 14.2157 6.99974H5.88235C5.34069 6.99974 4.90196 6.55225 4.90196 5.99977C4.90196 5.44729 5.34069 4.99981 5.88235 4.99981ZM10.7843 14.9994H5.88235C5.34069 14.9994 4.90196 14.552 4.90196 13.9995C4.90196 13.447 5.34069 12.9995 5.88235 12.9995H10.7843C11.326 12.9995 11.7647 13.447 11.7647 13.9995C11.7647 14.552 11.326 14.9994 10.7843 14.9994ZM5.88235 10.9996C5.34069 10.9996 4.90196 10.5521 4.90196 9.99962C4.90196 9.44714 5.34069 8.99966 5.88235 8.99966H14.2157C14.7574 8.99966 15.1961 9.44714 15.1961 9.99962C15.1961 10.5521 14.7574 10.9996 14.2157 10.9996H5.88235Z" fill="black"/>
<path d="M19.6078 13.9995C16.6348 13.9995 14.2157 16.4669 14.2157 19.4993C14.2157 22.5317 16.6348 24.9991 19.6078 24.9991C22.5809 24.9991 25 22.5317 25 19.4993C25 16.4669 22.5809 13.9995 19.6078 13.9995ZM21.894 18.6168C20.3265 21.0153 20.771 20.3353 19.9332 21.6167C19.6323 22.077 19.023 22.1992 18.5735 21.8935L17.1029 20.8936C16.6526 20.5873 16.5312 19.9667 16.8315 19.5068C17.1317 19.0474 17.7402 18.9237 18.1912 19.2299L18.8456 19.6749C20.4092 17.283 20.3251 17.3492 20.5882 17.1962C21.4812 16.6694 22.4678 17.7377 21.894 18.6168ZM15.1961 25.4953V30.9988C15.1961 31.765 16.0097 32.2478 16.663 31.8669L19.6078 30.1507L22.5527 31.8669C23.2034 32.2473 24.0196 31.7671 24.0196 30.9988V25.4953C21.4076 27.4997 17.8118 27.5026 15.1961 25.4953ZM21.5686 12.2708V2.17179C21.5686 0.974338 20.6134 0 19.4393 0H2.12929C0.95527 0 0 0.974338 0 2.17179V25.3272C0 26.5246 0.95527 27.499 2.12929 27.499H13.2353C13.2353 23.1958 13.2287 23.4622 13.2506 23.2641C9.96863 17.5252 15.1947 10.4654 21.5686 12.2708ZM5.88235 4.99981H14.2157C14.7574 4.99981 15.1961 5.44729 15.1961 5.99977C15.1961 6.55225 14.7574 6.99974 14.2157 6.99974H5.88235C5.34069 6.99974 4.90196 6.55225 4.90196 5.99977C4.90196 5.44729 5.34069 4.99981 5.88235 4.99981ZM10.7843 14.9994H5.88235C5.34069 14.9994 4.90196 14.552 4.90196 13.9995C4.90196 13.447 5.34069 12.9995 5.88235 12.9995H10.7843C11.326 12.9995 11.7647 13.447 11.7647 13.9995C11.7647 14.552 11.326 14.9994 10.7843 14.9994ZM5.88235 10.9996C5.34069 10.9996 4.90196 10.5521 4.90196 9.99962C4.90196 9.44714 5.34069 8.99966 5.88235 8.99966H14.2157C14.7574 8.99966 15.1961 9.44714 15.1961 9.99962C15.1961 10.5521 14.7574 10.9996 14.2157 10.9996H5.88235Z" fill="url(#paint0_linear_280_850)"/>
<defs>
<linearGradient id="paint0_linear_280_850" x1="12.6168" y1="39.0551" x2="21.5649" y2="2.17078" gradientUnits="userSpaceOnUse">
<stop stop-color="#710051"/>
<stop offset="1" stop-color="#B205A1"/>
</linearGradient>
</defs>
</svg>
