<svg width="36" height="31" viewBox="0 0 36 31" fill="none" xmlns="http://www.w3.org/2000/svg">
<path d="M27.4713 6.48325C27.8706 6.88253 28.5179 6.88253 28.9172 6.48325L31.327 4.07346C31.7263 3.67418 31.7263 3.02687 31.327 2.62759C30.9277 2.2283 30.2804 2.2283 29.8811 2.62759L27.4713 5.03737C27.0721 5.43665 27.0721 6.08397 27.4713 6.48325Z" fill="url(#paint0_linear_280_844)"/>
<path d="M28.6523 9.39973C28.7984 9.94515 29.359 10.2688 29.9044 10.1227L33.1963 9.24065C33.7417 9.09451 34.0654 8.5339 33.9193 7.98849C33.7731 7.44307 33.2125 7.11938 32.6671 7.26558L29.3752 8.14764C28.8298 8.2937 28.5061 8.85432 28.6523 9.39973Z" fill="url(#paint1_linear_280_844)"/>
<path d="M24.5549 5.30207C25.1003 5.4482 25.6609 5.12451 25.8071 4.57909L26.6891 1.28725C26.8352 0.741835 26.5116 0.181221 25.9662 0.0350862C25.4208 -0.111048 24.8602 0.212643 24.714 0.758057L23.832 4.0499C23.6858 4.59532 24.0095 5.15593 24.5549 5.30207Z" fill="url(#paint2_linear_280_844)"/>
<path d="M33.1486 12.2693H21.3643C20.692 12.2693 20.2027 11.6316 20.3767 10.9823L21.5636 6.55258C21.8924 5.32543 21.1642 4.064 19.937 3.7352C18.7099 3.40639 17.4485 4.13468 17.1196 5.36183L16.5547 7.47001C15.7963 10.3008 13.231 12.2693 10.3002 12.2693H7.36719V27.946H9.24158L9.75278 28.6276C10.7182 29.9148 12.2333 30.6724 13.8424 30.6724H22.7883C24.0588 30.6724 25.0887 29.6425 25.0887 28.372C25.0887 27.1015 24.0588 26.0716 22.7883 26.0716H24.1515C25.422 26.0716 26.4519 25.0417 26.4519 23.7712C26.4519 22.5007 25.422 21.4708 24.1515 21.4708H25.5147C26.7852 21.4708 27.8151 20.441 27.8151 19.1705C27.8151 17.9 26.7852 16.8701 25.5147 16.8701H33.1486C34.4191 16.8701 35.449 15.8402 35.449 14.5697C35.449 13.2992 34.4191 12.2693 33.1486 12.2693Z" fill="url(#paint3_linear_280_844)"/>
<path d="M4.30348 10.2227H1.57708C1.01245 10.2227 0.554688 10.6804 0.554688 11.2451V28.9666C0.554688 29.5312 1.01245 29.989 1.57708 29.989H4.30348C4.86811 29.989 5.32587 29.5312 5.32587 28.9666V11.2451C5.32587 10.6804 4.86811 10.2227 4.30348 10.2227Z" fill="url(#paint4_linear_280_844)"/>
<defs>
<linearGradient id="paint0_linear_280_844" x1="29.42" y1="7.76482" x2="30.4147" y2="2.51665" gradientUnits="userSpaceOnUse">
<stop stop-color="#710051"/>
<stop offset="1" stop-color="#B205A1"/>
</linearGradient>
<linearGradient id="paint1_linear_280_844" x1="31.3107" y1="10.8032" x2="31.6781" y2="7.26866" gradientUnits="userSpaceOnUse">
<stop stop-color="#710051"/>
<stop offset="1" stop-color="#B205A1"/>
</linearGradient>
<linearGradient id="paint2_linear_280_844" x1="25.2742" y1="6.51385" x2="27.285" y2="0.694835" gradientUnits="userSpaceOnUse">
<stop stop-color="#710051"/>
<stop offset="1" stop-color="#B205A1"/>
</linearGradient>
<linearGradient id="paint3_linear_280_844" x1="21.5393" y1="36.6287" x2="27.358" y2="4.71721" gradientUnits="userSpaceOnUse">
<stop stop-color="#710051"/>
<stop offset="1" stop-color="#B205A1"/>
</linearGradient>
<linearGradient id="paint4_linear_280_844" x1="2.96258" y1="34.3469" x2="14.6804" y2="19.4234" gradientUnits="userSpaceOnUse">
<stop stop-color="#710051"/>
<stop offset="1" stop-color="#B205A1"/>
</linearGradient>
</defs>
</svg>
