<svg width="30" height="30" viewBox="0 0 30 30" fill="none" xmlns="http://www.w3.org/2000/svg">
<path d="M19.2583 21.4713C19.1399 21.3285 18.9636 21.2461 18.7781 21.2461H11.2186C11.0331 21.2461 10.8568 21.3285 10.7384 21.4713C10.6194 21.6141 10.5705 21.802 10.6041 21.9845C11.5024 26.8504 13.2275 29.9943 14.9983 29.9943C16.7692 29.9943 18.4943 26.8504 19.3925 21.9845C19.4261 21.802 19.3773 21.6141 19.2583 21.4713Z" fill="black"/>
<path d="M19.2583 21.4713C19.1399 21.3285 18.9636 21.2461 18.7781 21.2461H11.2186C11.0331 21.2461 10.8568 21.3285 10.7384 21.4713C10.6194 21.6141 10.5705 21.802 10.6041 21.9845C11.5024 26.8504 13.2275 29.9943 14.9983 29.9943C16.7692 29.9943 18.4943 26.8504 19.3925 21.9845C19.4261 21.802 19.3773 21.6141 19.2583 21.4713Z" fill="url(#paint0_linear_280_851)"/>
<path d="M29.2797 10.4345C29.1974 10.1757 28.957 10 28.6848 10H21.6484C21.472 10 21.3036 10.0745 21.1852 10.2056C21.0662 10.3368 21.0089 10.5119 21.0266 10.6877C21.1712 12.1229 21.2445 13.574 21.2445 14.9989C21.2445 16.4238 21.1712 17.8749 21.0266 19.3101C21.0089 19.4859 21.0662 19.661 21.1852 19.7922C21.3036 19.9234 21.472 19.9978 21.6484 19.9978H28.6848C28.957 19.9978 29.1974 19.8221 29.2798 19.5633C29.7527 18.0824 29.9925 16.5471 29.9925 14.999C29.9925 13.4508 29.7527 11.9155 29.2797 10.4345Z" fill="black"/>
<path d="M29.2797 10.4345C29.1974 10.1757 28.957 10 28.6848 10H21.6484C21.472 10 21.3036 10.0745 21.1852 10.2056C21.0662 10.3368 21.0089 10.5119 21.0266 10.6877C21.1712 12.1229 21.2445 13.574 21.2445 14.9989C21.2445 16.4238 21.1712 17.8749 21.0266 19.3101C21.0089 19.4859 21.0662 19.661 21.1852 19.7922C21.3036 19.9234 21.472 19.9978 21.6484 19.9978H28.6848C28.957 19.9978 29.1974 19.8221 29.2798 19.5633C29.7527 18.0824 29.9925 16.5471 29.9925 14.999C29.9925 13.4508 29.7527 11.9155 29.2797 10.4345Z" fill="url(#paint1_linear_280_851)"/>
<path d="M20.6986 8.22662C20.7493 8.52744 21.0099 8.74776 21.315 8.74776H27.6222C27.8425 8.74776 28.0469 8.63119 28.1598 8.44203C28.2721 8.25223 28.2764 8.01732 28.1708 7.82388C26.295 4.38646 23.0724 1.76805 19.3281 0.640368C19.087 0.565911 18.8216 0.648276 18.6611 0.846632C18.5018 1.04557 18.4787 1.32079 18.6025 1.54287C19.513 3.17459 20.2379 5.4855 20.6986 8.22662Z" fill="black"/>
<path d="M20.6986 8.22662C20.7493 8.52744 21.0099 8.74776 21.315 8.74776H27.6222C27.8425 8.74776 28.0469 8.63119 28.1598 8.44203C28.2721 8.25223 28.2764 8.01732 28.1708 7.82388C26.295 4.38646 23.0724 1.76805 19.3281 0.640368C19.087 0.565911 18.8216 0.648276 18.6611 0.846632C18.5018 1.04557 18.4787 1.32079 18.6025 1.54287C19.513 3.17459 20.2379 5.4855 20.6986 8.22662Z" fill="url(#paint2_linear_280_851)"/>
<path d="M19.1339 10H10.8483C10.5291 10 10.2613 10.2404 10.2271 10.5578C10.0715 12.0003 9.99219 13.4947 9.99219 14.999C9.99219 16.5032 10.0715 17.9976 10.2271 19.4402C10.2613 19.7575 10.5291 19.9979 10.8483 19.9979H19.1339C19.453 19.9979 19.7209 19.7575 19.7551 19.4402C19.9107 17.9976 19.99 16.5032 19.99 14.999C19.99 13.4947 19.9107 12.0003 19.7551 10.5578C19.7209 10.2404 19.453 10 19.1339 10Z" fill="black"/>
<path d="M19.1339 10H10.8483C10.5291 10 10.2613 10.2404 10.2271 10.5578C10.0715 12.0003 9.99219 13.4947 9.99219 14.999C9.99219 16.5032 10.0715 17.9976 10.2271 19.4402C10.2613 19.7575 10.5291 19.9979 10.8483 19.9979H19.1339C19.453 19.9979 19.7209 19.7575 19.7551 19.4402C19.9107 17.9976 19.99 16.5032 19.99 14.999C19.99 13.4947 19.9107 12.0003 19.7551 10.5578C19.7209 10.2404 19.453 10 19.1339 10Z" fill="url(#paint3_linear_280_851)"/>
<path d="M2.36709 8.74792H8.67435C8.97944 8.74792 9.24001 8.52765 9.29068 8.22678C9.75142 5.48565 10.4764 3.17475 11.3868 1.54303C11.5107 1.32089 11.4875 1.04567 11.3282 0.84679C11.1683 0.649078 10.9041 0.565483 10.6612 0.640525C6.91691 1.76827 3.69431 4.38667 1.81848 7.8241C1.71292 8.01753 1.71719 8.2525 1.82949 8.44224C1.94238 8.6314 2.14677 8.74792 2.36709 8.74792Z" fill="black"/>
<path d="M2.36709 8.74792H8.67435C8.97944 8.74792 9.24001 8.52765 9.29068 8.22678C9.75142 5.48565 10.4764 3.17475 11.3868 1.54303C11.5107 1.32089 11.4875 1.04567 11.3282 0.84679C11.1683 0.649078 10.9041 0.565483 10.6612 0.640525C6.91691 1.76827 3.69431 4.38667 1.81848 7.8241C1.71292 8.01753 1.71719 8.2525 1.82949 8.44224C1.94238 8.6314 2.14677 8.74792 2.36709 8.74792Z" fill="url(#paint4_linear_280_851)"/>
<path d="M8.80732 19.7922C8.9263 19.661 8.98365 19.4859 8.96596 19.3101C8.82132 17.8749 8.7481 16.4238 8.7481 14.9989C8.7481 13.574 8.82132 12.1229 8.96596 10.6877C8.98365 10.5119 8.9263 10.3368 8.80732 10.2056C8.68893 10.0744 8.52051 10 8.34418 10H1.30771C1.03554 10 0.795122 10.1757 0.712757 10.4345C0.239831 11.9155 0 13.4508 0 14.9989C0 16.547 0.239831 18.0823 0.712757 19.5634C0.795122 19.8221 1.03554 19.9979 1.30771 19.9979H8.34418C8.52051 19.9978 8.68893 19.9234 8.80732 19.7922Z" fill="black"/>
<path d="M8.80732 19.7922C8.9263 19.661 8.98365 19.4859 8.96596 19.3101C8.82132 17.8749 8.7481 16.4238 8.7481 14.9989C8.7481 13.574 8.82132 12.1229 8.96596 10.6877C8.98365 10.5119 8.9263 10.3368 8.80732 10.2056C8.68893 10.0744 8.52051 10 8.34418 10H1.30771C1.03554 10 0.795122 10.1757 0.712757 10.4345C0.239831 11.9155 0 13.4508 0 14.9989C0 16.547 0.239831 18.0823 0.712757 19.5634C0.795122 19.8221 1.03554 19.9979 1.30771 19.9979H8.34418C8.52051 19.9978 8.68893 19.9234 8.80732 19.7922Z" fill="url(#paint5_linear_280_851)"/>
<path d="M9.29062 21.7672C9.23995 21.4664 8.97938 21.2461 8.67429 21.2461H2.36709C2.14683 21.2461 1.94238 21.3627 1.82949 21.5518C1.71719 21.7416 1.71292 21.9765 1.81848 22.17C3.69431 25.6073 6.91686 28.2258 10.6612 29.3535C10.7204 29.3718 10.7808 29.3803 10.8412 29.3803C11.0273 29.3803 11.2073 29.2967 11.3282 29.1472C11.4875 28.9483 11.5107 28.6731 11.3868 28.451C10.4763 26.8192 9.75136 24.5083 9.29062 21.7672Z" fill="black"/>
<path d="M9.29062 21.7672C9.23995 21.4664 8.97938 21.2461 8.67429 21.2461H2.36709C2.14683 21.2461 1.94238 21.3627 1.82949 21.5518C1.71719 21.7416 1.71292 21.9765 1.81848 22.17C3.69431 25.6073 6.91686 28.2258 10.6612 29.3535C10.7204 29.3718 10.7808 29.3803 10.8412 29.3803C11.0273 29.3803 11.2073 29.2967 11.3282 29.1472C11.4875 28.9483 11.5107 28.6731 11.3868 28.451C10.4763 26.8192 9.75136 24.5083 9.29062 21.7672Z" fill="url(#paint6_linear_280_851)"/>
<path d="M27.6222 21.2461H21.315C21.0099 21.2461 20.7493 21.4664 20.6986 21.7672C20.2379 24.5084 19.513 26.8193 18.6025 28.451C18.4787 28.6731 18.5018 28.9483 18.6611 29.1472C18.782 29.2967 18.9619 29.3803 19.1481 29.3803C19.2079 29.3803 19.269 29.3718 19.3281 29.3535C23.0725 28.2258 26.295 25.6073 28.1708 22.17C28.2764 21.9765 28.2721 21.7416 28.1598 21.5518C28.0469 21.3626 27.8425 21.2461 27.6222 21.2461Z" fill="black"/>
<path d="M27.6222 21.2461H21.315C21.0099 21.2461 20.7493 21.4664 20.6986 21.7672C20.2379 24.5084 19.513 26.8193 18.6025 28.451C18.4787 28.6731 18.5018 28.9483 18.6611 29.1472C18.782 29.2967 18.9619 29.3803 19.1481 29.3803C19.2079 29.3803 19.269 29.3718 19.3281 29.3535C23.0725 28.2258 26.295 25.6073 28.1708 22.17C28.2764 21.9765 28.2721 21.7416 28.1598 21.5518C28.0469 21.3626 27.8425 21.2461 27.6222 21.2461Z" fill="url(#paint7_linear_280_851)"/>
<path d="M10.7383 8.52297C10.8567 8.66579 11.033 8.74816 11.2186 8.74816H18.778C18.9635 8.74816 19.1399 8.66579 19.2582 8.52297C19.3772 8.38015 19.4261 8.19222 19.3925 8.0098C18.4942 3.14387 16.7691 0 14.9983 0C13.2274 0 11.5023 3.14387 10.6041 8.00974C10.5705 8.19222 10.6193 8.38015 10.7383 8.52297Z" fill="black"/>
<path d="M10.7383 8.52297C10.8567 8.66579 11.033 8.74816 11.2186 8.74816H18.778C18.9635 8.74816 19.1399 8.66579 19.2582 8.52297C19.3772 8.38015 19.4261 8.19222 19.3925 8.0098C18.4942 3.14387 16.7691 0 14.9983 0C13.2274 0 11.5023 3.14387 10.6041 8.00974C10.5705 8.19222 10.6193 8.38015 10.7383 8.52297Z" fill="url(#paint8_linear_280_851)"/>
<defs>
<linearGradient id="paint0_linear_280_851" x1="15.0395" y1="31.923" x2="16.9803" y2="21.6114" gradientUnits="userSpaceOnUse">
<stop stop-color="#710051"/>
<stop offset="1" stop-color="#B205A1"/>
</linearGradient>
<linearGradient id="paint1_linear_280_851" x1="25.5499" y1="22.202" x2="28.0176" y2="10.5214" gradientUnits="userSpaceOnUse">
<stop stop-color="#710051"/>
<stop offset="1" stop-color="#B205A1"/>
</linearGradient>
<linearGradient id="paint2_linear_280_851" x1="23.4307" y1="10.5412" x2="24.9662" y2="0.856741" gradientUnits="userSpaceOnUse">
<stop stop-color="#710051"/>
<stop offset="1" stop-color="#B205A1"/>
</linearGradient>
<linearGradient id="paint3_linear_280_851" x1="15.0378" y1="22.2022" x2="17.2703" y2="10.4231" gradientUnits="userSpaceOnUse">
<stop stop-color="#710051"/>
<stop offset="1" stop-color="#B205A1"/>
</linearGradient>
<linearGradient id="paint4_linear_280_851" x1="6.64947" y1="10.5414" x2="8.18504" y2="0.856755" gradientUnits="userSpaceOnUse">
<stop stop-color="#710051"/>
<stop offset="1" stop-color="#B205A1"/>
</linearGradient>
<linearGradient id="paint5_linear_280_851" x1="4.52647" y1="22.2021" x2="6.99425" y2="10.5214" gradientUnits="userSpaceOnUse">
<stop stop-color="#710051"/>
<stop offset="1" stop-color="#B205A1"/>
</linearGradient>
<linearGradient id="paint6_linear_280_851" x1="6.64947" y1="31.1737" x2="8.18488" y2="21.4895" gradientUnits="userSpaceOnUse">
<stop stop-color="#710051"/>
<stop offset="1" stop-color="#B205A1"/>
</linearGradient>
<linearGradient id="paint7_linear_280_851" x1="23.4307" y1="31.1737" x2="24.9661" y2="21.4895" gradientUnits="userSpaceOnUse">
<stop stop-color="#710051"/>
<stop offset="1" stop-color="#B205A1"/>
</linearGradient>
<linearGradient id="paint8_linear_280_851" x1="15.0395" y1="10.6769" x2="16.9803" y2="0.365298" gradientUnits="userSpaceOnUse">
<stop stop-color="#710051"/>
<stop offset="1" stop-color="#B205A1"/>
</linearGradient>
</defs>
</svg>
