<svg width="30" height="25" viewBox="0 0 30 25" fill="none" xmlns="http://www.w3.org/2000/svg">
<path d="M24.9938 13.3789H22.7344C22.9647 14.0095 23.0905 14.6899 23.0905 15.3992V23.9386C23.0905 24.2343 23.039 24.5182 22.9454 24.7821H26.6808C28.0761 24.7821 29.2113 23.6469 29.2113 22.2516V17.5964C29.2114 15.2709 27.3194 13.3789 24.9938 13.3789Z" fill="black"/>
<path d="M24.9938 13.3789H22.7344C22.9647 14.0095 23.0905 14.6899 23.0905 15.3992V23.9386C23.0905 24.2343 23.039 24.5182 22.9454 24.7821H26.6808C28.0761 24.7821 29.2113 23.6469 29.2113 22.2516V17.5964C29.2114 15.2709 27.3194 13.3789 24.9938 13.3789Z" fill="url(#paint0_linear_280_865)"/>
<path d="M6.12085 15.3992C6.12085 14.6899 6.24667 14.0095 6.47698 13.3789H4.21752C1.89198 13.3789 0 15.2709 0 17.5964V22.2517C0 23.647 1.13515 24.7822 2.53051 24.7822H6.26596C6.17232 24.5181 6.12085 24.2343 6.12085 23.9386V15.3992Z" fill="black"/>
<path d="M6.12085 15.3992C6.12085 14.6899 6.24667 14.0095 6.47698 13.3789H4.21752C1.89198 13.3789 0 15.2709 0 17.5964V22.2517C0 23.647 1.13515 24.7822 2.53051 24.7822H6.26596C6.17232 24.5181 6.12085 24.2343 6.12085 23.9386V15.3992Z" fill="url(#paint1_linear_280_865)"/>
<path d="M17.1798 11.1797H12.0144C9.68885 11.1797 7.79688 13.0717 7.79688 15.3972V23.9367C7.79688 24.4025 8.17452 24.7802 8.64038 24.7802H20.5539C21.0197 24.7802 21.3974 24.4025 21.3974 23.9367V15.3972C21.3974 13.0717 19.5054 11.1797 17.1798 11.1797Z" fill="black"/>
<path d="M17.1798 11.1797H12.0144C9.68885 11.1797 7.79688 13.0717 7.79688 15.3972V23.9367C7.79688 24.4025 8.17452 24.7802 8.64038 24.7802H20.5539C21.0197 24.7802 21.3974 24.4025 21.3974 23.9367V15.3972C21.3974 13.0717 19.5054 11.1797 17.1798 11.1797Z" fill="url(#paint2_linear_280_865)"/>
<path d="M14.6033 0C11.8066 0 9.53125 2.27533 9.53125 5.07215C9.53125 6.9692 10.5783 8.62603 12.1246 9.49589C12.858 9.90846 13.7036 10.1442 14.6033 10.1442C15.5031 10.1442 16.3487 9.90846 17.0821 9.49589C18.6284 8.62603 19.6754 6.96915 19.6754 5.07215C19.6754 2.27538 17.4001 0 14.6033 0Z" fill="black"/>
<path d="M14.6033 0C11.8066 0 9.53125 2.27533 9.53125 5.07215C9.53125 6.9692 10.5783 8.62603 12.1246 9.49589C12.858 9.90846 13.7036 10.1442 14.6033 10.1442C15.5031 10.1442 16.3487 9.90846 17.0821 9.49589C18.6284 8.62603 19.6754 6.96915 19.6754 5.07215C19.6754 2.27538 17.4001 0 14.6033 0Z" fill="url(#paint3_linear_280_865)"/>
<path d="M5.70747 4.72644C3.61583 4.72644 1.91422 6.42806 1.91422 8.5197C1.91422 10.6113 3.61583 12.313 5.70747 12.313C6.23804 12.313 6.74328 12.203 7.20223 12.0055C7.99575 11.6639 8.65003 11.0591 9.05489 10.3016C9.33907 9.76994 9.50073 9.16342 9.50073 8.5197C9.50073 6.42811 7.79911 4.72644 5.70747 4.72644Z" fill="black"/>
<path d="M5.70747 4.72644C3.61583 4.72644 1.91422 6.42806 1.91422 8.5197C1.91422 10.6113 3.61583 12.313 5.70747 12.313C6.23804 12.313 6.74328 12.203 7.20223 12.0055C7.99575 11.6639 8.65003 11.0591 9.05489 10.3016C9.33907 9.76994 9.50073 9.16342 9.50073 8.5197C9.50073 6.42811 7.79911 4.72644 5.70747 4.72644Z" fill="url(#paint4_linear_280_865)"/>
<path d="M23.512 4.72656C21.4204 4.72656 19.7188 6.42818 19.7188 8.51982C19.7188 9.1636 19.8804 9.77012 20.1646 10.3017C20.5694 11.0593 21.2237 11.664 22.0172 12.0056C22.4762 12.2032 22.9814 12.3131 23.512 12.3131C25.6036 12.3131 27.3053 10.6115 27.3053 8.51982C27.3053 6.42818 25.6036 4.72656 23.512 4.72656Z" fill="black"/>
<path d="M23.512 4.72656C21.4204 4.72656 19.7188 6.42818 19.7188 8.51982C19.7188 9.1636 19.8804 9.77012 20.1646 10.3017C20.5694 11.0593 21.2237 11.664 22.0172 12.0056C22.4762 12.2032 22.9814 12.3131 23.512 12.3131C25.6036 12.3131 27.3053 10.6115 27.3053 8.51982C27.3053 6.42818 25.6036 4.72656 23.512 4.72656Z" fill="url(#paint5_linear_280_865)"/>
<defs>
<linearGradient id="paint0_linear_280_865" x1="26.0031" y1="27.2962" x2="30.1818" y2="14.7733" gradientUnits="userSpaceOnUse">
<stop stop-color="#710051"/>
<stop offset="1" stop-color="#B205A1"/>
</linearGradient>
<linearGradient id="paint1_linear_280_865" x1="3.26876" y1="27.2963" x2="7.44748" y2="14.7733" gradientUnits="userSpaceOnUse">
<stop stop-color="#710051"/>
<stop offset="1" stop-color="#B205A1"/>
</linearGradient>
<linearGradient id="paint2_linear_280_865" x1="14.6607" y1="27.7787" x2="17.6976" y2="11.7553" gradientUnits="userSpaceOnUse">
<stop stop-color="#710051"/>
<stop offset="1" stop-color="#B205A1"/>
</linearGradient>
<linearGradient id="paint3_linear_280_865" x1="14.6507" y1="12.3808" x2="16.9159" y2="0.429319" gradientUnits="userSpaceOnUse">
<stop stop-color="#710051"/>
<stop offset="1" stop-color="#B205A1"/>
</linearGradient>
<linearGradient id="paint4_linear_280_865" x1="5.74292" y1="13.9856" x2="7.43695" y2="5.04751" gradientUnits="userSpaceOnUse">
<stop stop-color="#710051"/>
<stop offset="1" stop-color="#B205A1"/>
</linearGradient>
<linearGradient id="paint5_linear_280_865" x1="23.5475" y1="13.9857" x2="25.2415" y2="5.04763" gradientUnits="userSpaceOnUse">
<stop stop-color="#710051"/>
<stop offset="1" stop-color="#B205A1"/>
</linearGradient>
</defs>
</svg>
