<svg width="32" height="32" viewBox="0 0 32 32" fill="none" xmlns="http://www.w3.org/2000/svg">
<path d="M15.6666 0C12.5681 0 9.53908 0.918831 6.96272 2.6403C4.38636 4.36177 2.37833 6.80856 1.19256 9.67127C0.0067881 12.534 -0.303463 15.684 0.301037 18.723C0.905537 21.7621 2.39764 24.5536 4.58865 26.7446C6.77967 28.9356 9.5712 30.4277 12.6102 31.0322C15.6493 31.6367 18.7993 31.3265 21.662 30.1407C24.5247 28.9549 26.9715 26.9469 28.6929 24.3705C30.4144 21.7942 31.3333 18.7652 31.3333 15.6666C31.3333 13.6093 30.928 11.572 30.1407 9.67127C29.3534 7.7705 28.1994 6.04343 26.7446 4.58865C25.2898 3.13387 23.5627 1.97987 21.662 1.19255C19.7612 0.405229 17.724 0 15.6666 0ZM10.2303 17.9696C10.3458 18.0772 10.4383 18.2069 10.5026 18.351C10.5668 18.4952 10.6013 18.6508 10.6041 18.8085C10.6069 18.9663 10.5779 19.123 10.5188 19.2693C10.4597 19.4156 10.3717 19.5485 10.2601 19.6601C10.1486 19.7717 10.0157 19.8596 9.86935 19.9187C9.72304 19.9778 9.56633 20.0069 9.40856 20.0041C9.2508 20.0013 9.0952 19.9668 8.95107 19.9025C8.80694 19.8383 8.67722 19.7457 8.56965 19.6303L5.43633 16.497C5.32718 16.388 5.2406 16.2585 5.18153 16.1161C5.12245 15.9736 5.09204 15.8209 5.09204 15.6666C5.09204 15.5124 5.12245 15.3597 5.18153 15.2172C5.2406 15.0747 5.32718 14.9453 5.43633 14.8363L8.56965 11.703C8.67722 11.5875 8.80694 11.4949 8.95107 11.4307C9.0952 11.3665 9.2508 11.332 9.40856 11.3292C9.56633 11.3264 9.72304 11.3554 9.86935 11.4145C10.0157 11.4736 10.1486 11.5616 10.2601 11.6731C10.3717 11.7847 10.4597 11.9176 10.5188 12.0639C10.5779 12.2102 10.6069 12.3669 10.6041 12.5247C10.6013 12.6825 10.5668 12.8381 10.5026 12.9822C10.4383 13.1263 10.3458 13.2561 10.2303 13.3636L7.92888 15.6666L10.2303 17.9696ZM18.3127 12.4753L15.1794 19.7854C15.053 20.0664 14.8212 20.2865 14.534 20.3983C14.2468 20.51 13.9272 20.5045 13.6441 20.3829C13.3609 20.2612 13.1369 20.0332 13.0203 19.748C12.9036 19.4627 12.9037 19.1431 13.0205 18.8579L16.1539 11.5479C16.2803 11.2668 16.5121 11.0467 16.7993 10.935C17.0865 10.8232 17.4061 10.8288 17.6892 10.9504C17.9723 11.072 18.1964 11.3 18.313 11.5853C18.4296 11.8705 18.4295 12.1902 18.3127 12.4753ZM25.8969 16.497L22.7636 19.6303C22.656 19.7457 22.5263 19.8383 22.3822 19.9025C22.2381 19.9668 22.0825 20.0013 21.9247 20.0041C21.7669 20.0069 21.6102 19.9778 21.4639 19.9187C21.3176 19.8596 21.1847 19.7717 21.0731 19.6601C20.9615 19.5485 20.8736 19.4156 20.8145 19.2693C20.7554 19.123 20.7264 18.9663 20.7292 18.8085C20.7319 18.6508 20.7665 18.4952 20.8307 18.351C20.8949 18.2069 20.9875 18.0772 21.1029 17.9696L23.4044 15.6666L21.1029 13.3636C20.9875 13.2561 20.8949 13.1263 20.8307 12.9822C20.7665 12.8381 20.7319 12.6825 20.7292 12.5247C20.7264 12.3669 20.7554 12.2102 20.8145 12.0639C20.8736 11.9176 20.9615 11.7847 21.0731 11.6731C21.1847 11.5616 21.3176 11.4736 21.4639 11.4145C21.6102 11.3554 21.7669 11.3264 21.9247 11.3292C22.0825 11.332 22.2381 11.3665 22.3822 11.4307C22.5263 11.4949 22.656 11.5875 22.7636 11.703L25.8969 14.8363C26.0061 14.9453 26.0927 15.0747 26.1517 15.2172C26.2108 15.3597 26.2412 15.5124 26.2412 15.6666C26.2412 15.8209 26.2108 15.9736 26.1517 16.1161C26.0927 16.2585 26.0061 16.388 25.8969 16.497Z" fill="black"/>
<path d="M15.6666 0C12.5681 0 9.53908 0.918831 6.96272 2.6403C4.38636 4.36177 2.37833 6.80856 1.19256 9.67127C0.0067881 12.534 -0.303463 15.684 0.301037 18.723C0.905537 21.7621 2.39764 24.5536 4.58865 26.7446C6.77967 28.9356 9.5712 30.4277 12.6102 31.0322C15.6493 31.6367 18.7993 31.3265 21.662 30.1407C24.5247 28.9549 26.9715 26.9469 28.6929 24.3705C30.4144 21.7942 31.3333 18.7652 31.3333 15.6666C31.3333 13.6093 30.928 11.572 30.1407 9.67127C29.3534 7.7705 28.1994 6.04343 26.7446 4.58865C25.2898 3.13387 23.5627 1.97987 21.662 1.19255C19.7612 0.405229 17.724 0 15.6666 0ZM10.2303 17.9696C10.3458 18.0772 10.4383 18.2069 10.5026 18.351C10.5668 18.4952 10.6013 18.6508 10.6041 18.8085C10.6069 18.9663 10.5779 19.123 10.5188 19.2693C10.4597 19.4156 10.3717 19.5485 10.2601 19.6601C10.1486 19.7717 10.0157 19.8596 9.86935 19.9187C9.72304 19.9778 9.56633 20.0069 9.40856 20.0041C9.2508 20.0013 9.0952 19.9668 8.95107 19.9025C8.80694 19.8383 8.67722 19.7457 8.56965 19.6303L5.43633 16.497C5.32718 16.388 5.2406 16.2585 5.18153 16.1161C5.12245 15.9736 5.09204 15.8209 5.09204 15.6666C5.09204 15.5124 5.12245 15.3597 5.18153 15.2172C5.2406 15.0747 5.32718 14.9453 5.43633 14.8363L8.56965 11.703C8.67722 11.5875 8.80694 11.4949 8.95107 11.4307C9.0952 11.3665 9.2508 11.332 9.40856 11.3292C9.56633 11.3264 9.72304 11.3554 9.86935 11.4145C10.0157 11.4736 10.1486 11.5616 10.2601 11.6731C10.3717 11.7847 10.4597 11.9176 10.5188 12.0639C10.5779 12.2102 10.6069 12.3669 10.6041 12.5247C10.6013 12.6825 10.5668 12.8381 10.5026 12.9822C10.4383 13.1263 10.3458 13.2561 10.2303 13.3636L7.92888 15.6666L10.2303 17.9696ZM18.3127 12.4753L15.1794 19.7854C15.053 20.0664 14.8212 20.2865 14.534 20.3983C14.2468 20.51 13.9272 20.5045 13.6441 20.3829C13.3609 20.2612 13.1369 20.0332 13.0203 19.748C12.9036 19.4627 12.9037 19.1431 13.0205 18.8579L16.1539 11.5479C16.2803 11.2668 16.5121 11.0467 16.7993 10.935C17.0865 10.8232 17.4061 10.8288 17.6892 10.9504C17.9723 11.072 18.1964 11.3 18.313 11.5853C18.4296 11.8705 18.4295 12.1902 18.3127 12.4753ZM25.8969 16.497L22.7636 19.6303C22.656 19.7457 22.5263 19.8383 22.3822 19.9025C22.2381 19.9668 22.0825 20.0013 21.9247 20.0041C21.7669 20.0069 21.6102 19.9778 21.4639 19.9187C21.3176 19.8596 21.1847 19.7717 21.0731 19.6601C20.9615 19.5485 20.8736 19.4156 20.8145 19.2693C20.7554 19.123 20.7264 18.9663 20.7292 18.8085C20.7319 18.6508 20.7665 18.4952 20.8307 18.351C20.8949 18.2069 20.9875 18.0772 21.1029 17.9696L23.4044 15.6666L21.1029 13.3636C20.9875 13.2561 20.8949 13.1263 20.8307 12.9822C20.7665 12.8381 20.7319 12.6825 20.7292 12.5247C20.7264 12.3669 20.7554 12.2102 20.8145 12.0639C20.8736 11.9176 20.9615 11.7847 21.0731 11.6731C21.1847 11.5616 21.3176 11.4736 21.4639 11.4145C21.6102 11.3554 21.7669 11.3264 21.9247 11.3292C22.0825 11.332 22.2381 11.3665 22.3822 11.4307C22.5263 11.4949 22.656 11.5875 22.7636 11.703L25.8969 14.8363C26.0061 14.9453 26.0927 15.0747 26.1517 15.2172C26.2108 15.3597 26.2412 15.5124 26.2412 15.6666C26.2412 15.8209 26.2108 15.9736 26.1517 16.1161C26.0927 16.2585 26.0061 16.388 25.8969 16.497Z" fill="url(#paint0_linear_280_863)"/>
<defs>
<linearGradient id="paint0_linear_280_863" x1="15.813" y1="38.2414" x2="22.8096" y2="1.32605" gradientUnits="userSpaceOnUse">
<stop stop-color="#710051"/>
<stop offset="1" stop-color="#B205A1"/>
</linearGradient>
</defs>
</svg>
